<?xml version="1.0" encoding="UTF-8" standalone="no"?>
<!-- Created with Inkscape (http://www.inkscape.org/) -->

<svg
   width="1024"
   height="600"
   viewBox="0 0 1024 600"
   version="1.1"
   id="svg5"
   inkscape:version="1.2 (dc2aedaf03, 2022-05-15)"
   sodipodi:docname="menu.svg"
   xml:space="preserve"
   inkscape:export-filename="menu.png"
   inkscape:export-xdpi="96"
   inkscape:export-ydpi="96"
   xmlns:inkscape="http://www.inkscape.org/namespaces/inkscape"
   xmlns:sodipodi="http://sodipodi.sourceforge.net/DTD/sodipodi-0.dtd"
   xmlns="http://www.w3.org/2000/svg"
   xmlns:svg="http://www.w3.org/2000/svg"><sodipodi:namedview
     id="namedview7"
     pagecolor="#ffffff"
     bordercolor="#000000"
     borderopacity="0.25"
     inkscape:showpageshadow="2"
     inkscape:pageopacity="0.0"
     inkscape:pagecheckerboard="0"
     inkscape:deskcolor="#d1d1d1"
     inkscape:document-units="px"
     showgrid="false"
     inkscape:zoom="1.0444209"
     inkscape:cx="509.37318"
     inkscape:cy="303.51748"
     inkscape:window-width="1920"
     inkscape:window-height="1009"
     inkscape:window-x="1912"
     inkscape:window-y="-8"
     inkscape:window-maximized="1"
     inkscape:current-layer="layer1"><inkscape:grid
       type="xygrid"
       id="grid295" /></sodipodi:namedview><defs
     id="defs2" /><g
     inkscape:label="Ebene 1"
     inkscape:groupmode="layer"
     id="layer1"><rect
       style="fill:#0a141e"
       id="plane"
       width="1024"
       height="600"
       x="0"
       y="0" /><g
       id="monitor"><path
         style="fill:#ffffff"
         d="M 60,40 A 20,20 0 0 0 40,60 v 40 a 20,20 0 0 0 20,20 h 260 a 20,20 0 0 0 20,-20 V 60 A 20,20 0 0 0 320,40 Z"
         id="path625" /><path
         d="m 63.365568,99.256477 c -2.923687,-3.229368 -4.725645,-6.520929 -5.728914,-10.46486 -0.949808,-3.733751 -0.829877,-8.439333 0.312929,-12.276294 1.760843,-5.912122 5.88962,-10.952994 11.353813,-13.860435 6.372657,-3.391401 13.962749,-3.541791 20.398527,-0.4042 7.293122,3.555551 12.148427,10.295044 13.171367,18.282336 0.19075,1.489491 0.16156,4.613282 -0.0568,6.070862 -0.70738,4.723472 -2.56814,8.681353 -5.812929,12.363241 l -0.910046,1.03287 -32.066774,-0.014 -0.660744,-0.7298 z m 18.20153,-10.56495 c 0.756332,-0.3736 1.505065,-1.206131 1.757679,-1.954251 0.117714,-0.3487 0.195509,-0.9117 0.199806,-1.44609 l 0.0074,-0.875101 1.386274,-2.16615 c 0.76245,-1.191371 1.437307,-2.313821 1.499619,-2.494311 0.201507,-0.5836 0.05989,-1.573171 -0.299,-2.088711 -0.789609,-1.13435 -2.466429,-1.3241 -3.475779,-0.3932 -0.12857,0.1186 -0.884157,1.24207 -1.679184,2.496771 -1.388152,2.190851 -1.46258,2.285601 -1.879634,2.391841 -1.383358,0.3524 -2.470228,1.79566 -2.479897,3.292951 -0.0104,1.61846 0.942172,2.956931 2.461782,3.458841 0.690322,0.228 1.786677,0.1305 2.501352,-0.2226 z M 67.577549,85.448696 c 0.915189,-0.2566 1.594922,-1.209501 1.594922,-2.235801 0,-1.774661 -1.750356,-2.866931 -3.324816,-2.074681 -1.363118,0.6859 -1.706232,2.453041 -0.69599,3.584521 0.667902,0.748001 1.48029,0.991101 2.425875,0.726001 z m 26.488178,-0.053 c 1.046804,-0.440301 1.688679,-1.628141 1.435835,-2.656911 -0.354558,-1.442321 -1.83315,-2.250981 -3.121933,-1.707391 -1.56974,0.6621 -1.936259,2.723771 -0.695731,3.913331 0.608313,0.583301 1.614269,0.773801 2.381829,0.450901 z M 71.880528,75.939453 c 1.720455,-0.886301 1.63921,-3.458752 -0.132885,-4.206372 -1.0005,-0.4221 -2.194467,-0.087 -2.826507,0.7944 -0.281934,0.393001 -0.344283,0.592201 -0.376483,1.203011 -0.0322,0.6108 0.0046,0.8136 0.221794,1.22427 0.608847,1.150921 1.961201,1.578591 3.114053,0.984701 z m 18.609403,-0.07 c 0.254555,-0.149 0.59581,-0.473801 0.758328,-0.721801 0.25772,-0.3932 0.295486,-0.5588 0.295486,-1.2958 0,-0.7741 -0.0287,-0.8848 -0.341072,-1.320411 -0.635168,-0.8854 -1.827065,-1.2218 -2.829681,-0.7988 -1.357359,0.5726 -1.821296,2.333421 -0.928685,3.524711 0.738622,0.985801 1.980788,1.235421 3.045642,0.612101 z m -9.532204,-3.819222 c 1.256279,-0.5299 1.770347,-1.94539 1.15748,-3.187211 -0.851736,-1.72585 -3.255835,-1.72972 -4.106191,-0.0067 -0.455749,0.923401 -0.32429,1.912081 0.350962,2.639201 0.624791,0.6728 1.748727,0.9128 2.597712,0.5547 z"
         style="fill:#0a141e"
         id="path627" /><text
         style="font-style:normal;font-variant:normal;font-weight:normal;font-stretch:normal;font-size:36.4196px;font-family:Impact;-inkscape-font-specification:'Impact, Normal';font-variant-ligatures:normal;font-variant-caps:normal;font-variant-numeric:normal;font-variant-east-asian:normal;fill:#0a141e;fill-opacity:1;stroke-width:0.69225;stroke-linejoin:round;paint-order:fill markers stroke"
         x="118.50623"
         y="94.395309"
         id="text630"><tspan
           sodipodi:role="line"
           id="tspan43145"
           x="118.50623"
           y="94.395309"
           style="stroke-width:0.69225;fill:#0a141e;fill-opacity:1">MONITOR</tspan></text></g><g
       id="shell"><path
         style="fill:#ffffff"
         d="m 60,140 a 20,20 0 0 0 -20,20 v 40 a 20,20 0 0 0 20,20 h 260 a 20,20 0 0 0 20,-20 v -40 a 20,20 0 0 0 -20,-20 z"
         id="path692" /><path
         d="m 76.72395,202.89313 c -1.01216,-0.11514 -1.53601,-0.36019 -2.05124,-0.95967 -0.54655,-0.63578 -0.71948,-1.2333 -0.71948,-2.48692 0,-1.20725 -0.12953,-1.62337 -0.63796,-2.0495 -0.85633,-0.71752 -1.6224,-0.60075 -2.70012,0.41166 -0.4054,0.38085 -0.97229,0.79596 -1.25938,0.92249 -0.63985,0.28186 -1.74771,0.30376 -2.36534,0.0467 -1.36656,-0.56858 -5.4025,-4.6306 -5.93697,-5.97543 -0.24041,-0.60502 -0.25426,-1.7416 -0.0285,-2.27611 0.092,-0.21693 0.50997,-0.76248 0.92885,-1.21241 0.85377,-0.91685 1.0501,-1.37329 0.87018,-2.02233 -0.12084,-0.43599 -0.53587,-0.98249 -0.89624,-1.17998 -0.1271,-0.0697 -0.78997,-0.15718 -1.4731,-0.19429 -1.38285,-0.0752 -1.84595,-0.2408 -2.44509,-0.87426 -0.8301,-0.87814 -1.00832,-1.78161 -1.00956,-5.12117 -9.2e-4,-2.42933 0.14816,-3.9865 0.43564,-4.54746 0.27017,-0.52761 0.98311,-1.12257 1.59303,-1.32951 0.27395,-0.0928 0.85563,-0.16739 1.31024,-0.16772 0.44974,-3.2e-4 1.00964,-0.0537 1.24442,-0.11861 0.88413,-0.24438 1.47232,-1.2221 1.24008,-2.06023 -0.0693,-0.25059 -0.39267,-0.70161 -0.87087,-1.21515 -0.92893,-0.99758 -1.16832,-1.48564 -1.17155,-2.38837 -0.003,-0.86934 0.13599,-1.18177 1.09517,-2.46247 0.99979,-1.33491 2.44296,-2.77506 3.7632,-3.75546 1.35523,-1.00636 1.58923,-1.11772 2.34172,-1.11491 0.79047,0.003 1.27801,0.22428 2.24606,1.01952 0.97944,0.80463 1.1589,0.91765 1.62259,1.02176 0.49188,0.11046 1.02993,-0.0374 1.46625,-0.40299 0.49401,-0.414 0.63648,-0.84829 0.63648,-1.94062 0,-1.12983 0.18813,-1.76136 0.70308,-2.36038 C 75.40134,157.23165 76.5731,157 80.21551,157 c 2.53596,0 3.95666,0.13244 4.5269,0.42208 0.54552,0.27709 1.14209,0.98089 1.35232,1.59507 0.0945,0.27643 0.16782,0.85169 0.16782,1.31812 0,1.15847 0.0845,1.46573 0.52881,1.93072 0.80051,0.83709 1.6665,0.78314 2.69821,-0.16805 0.35051,-0.32317 0.87002,-0.69006 1.1544,-0.81531 0.59983,-0.26425 1.60971,-0.30989 2.23855,-0.1012 1.28317,0.42595 5.50768,4.62643 6.0643,6.02972 0.24002,0.60517 0.25369,1.74216 0.0282,2.2761 -0.0919,0.21693 -0.50996,0.76249 -0.92885,1.21242 -0.85376,0.91685 -1.05009,1.37329 -0.87016,2.02232 0.12083,0.43598 0.53586,0.9825 0.89623,1.17998 0.12709,0.0697 0.78997,0.15719 1.47309,0.1943 1.38286,0.0752 1.84596,0.2408 2.4451,0.87426 0.83009,0.87814 1.00832,1.7816 1.00956,5.12116 9.3e-4,2.42934 -0.14817,3.9865 -0.43565,4.54746 -0.27016,0.52761 -0.98311,1.12257 -1.59302,1.32951 -0.29953,0.10162 -0.86731,0.16714 -1.44864,0.16714 -1.09784,0 -1.53302,0.14182 -1.95017,0.63541 -0.72064,0.85274 -0.60326,1.61547 0.41343,2.6887 0.38243,0.4037 0.80104,0.97015 0.93018,1.25868 0.27034,0.60388 0.31327,1.58144 0.0976,2.2241 -0.43857,1.30845 -4.6879,5.52326 -6.097,6.04769 -0.64762,0.241 -1.70447,0.2507 -2.24418,0.0206 -0.21776,-0.0928 -0.76561,-0.51012 -1.21761,-0.92725 -0.92071,-0.85008 -1.37896,-1.04572 -2.03081,-0.86652 -0.51121,0.14056 -1.04199,0.58671 -1.22941,1.03362 -0.0879,0.20905 -0.1484,0.7547 -0.14975,1.34909 -0.002,0.7698 -0.0523,1.1087 -0.22202,1.48193 -0.48472,1.06725 -1.41724,1.67055 -2.83349,1.83265 -1.08241,0.12395 -5.10788,0.11003 -6.26553,-0.0216 z m 5.34014,-15.41115 c 2.71364,-0.72717 4.85305,-2.8653 5.55093,-5.5477 1.08555,-4.17151 -1.50417,-8.41283 -5.77908,-9.46524 -0.7643,-0.18817 -2.6911,-0.18817 -3.45543,0 -2.91032,0.71644 -5.11725,2.91367 -5.84329,5.81761 -0.21031,0.8408 -0.18023,2.78843 0.0562,3.65584 0.22355,0.8196 0.7999,2.00386 1.30772,2.68797 1.18091,1.59039 3.09017,2.71401 5.18067,3.04892 0.56247,0.09 2.35122,-0.0282 2.98177,-0.19712 z"
         style="fill:#0a141e"
         id="path694" /><text
         style="font-style:normal;font-variant:normal;font-weight:normal;font-stretch:normal;font-size:37.1766px;font-family:Impact;-inkscape-font-specification:'Impact, Normal';font-variant-ligatures:normal;font-variant-caps:normal;font-variant-numeric:normal;font-variant-east-asian:normal;fill:#0a141e;fill-opacity:1;stroke-width:0.706639;stroke-linejoin:round;paint-order:fill markers stroke"
         x="122.27645"
         y="191.02933"
         transform="scale(0.97963754,1.0207857)"
         id="text697"><tspan
           sodipodi:role="line"
           id="tspan43145-4"
           x="122.27645"
           y="191.02933"
           style="fill:#0a141e;fill-opacity:1;stroke-width:0.706639">TERMINAL</tspan></text></g><g
       id="in_out"><path
         style="fill:#ffffff"
         d="m 60,240 a 20,20 0 0 0 -20,20 v 40 a 20,20 0 0 0 20,20 h 260 a 20,20 0 0 0 20,-20 v -40 a 20,20 0 0 0 -20,-20 z"
         id="path819" /><path
         d="m 70.7202,295.46477 v -7.53486 h 18.5607 v 15.07006 H 70.7202 Z m -11.3564,6.98336 c -0.4462,-0.23401 -0.7068,-0.47401 -0.9583,-0.88252 L 58.06,301.00455 58.03,279.98738 58,258.97022 l 0.321,-0.61705 c 0.2341,-0.44975 0.4726,-0.71112 0.8798,-0.96398 l 0.5589,-0.34688 15.1708,-0.03 c 14.5693,-0.0288 15.1897,-0.0215 15.6478,0.18362 0.3338,0.14932 2.0331,1.74065 5.6451,5.28639 4.3918,4.31128 5.2087,5.16439 5.4422,5.68326 l 0.2746,0.61051 0.03,16.00359 0.03,16.00358 -0.3213,0.61758 c -0.2342,0.45004 -0.4729,0.71166 -0.8798,0.96449 l -0.5586,0.34689 -6.3773,0.0678 v -8.98234 c 0,-8.68813 -0.01,-8.997 -0.2242,-9.42408 -0.2551,-0.50204 -0.8067,-1.00763 -1.3476,-1.23523 -0.5458,-0.22966 -24.0369,-0.22966 -24.5835,0 -0.5409,0.22759 -1.0925,0.73316 -1.3476,1.23523 -0.2167,0.42665 -0.2241,0.7352 -0.2241,9.4189 v 8.97716 h -6.1607 z"
         style="fill:#0a141e"
         id="path821" /><text
         style="font-style:normal;font-variant:normal;font-weight:normal;font-stretch:normal;font-size:36.4196px;font-family:Impact;-inkscape-font-specification:'Impact, Normal';font-variant-ligatures:normal;font-variant-caps:normal;font-variant-numeric:normal;font-variant-east-asian:normal;fill:#0a141e;fill-opacity:1;stroke-width:0.69225;stroke-linejoin:round;paint-order:fill markers stroke"
         x="118.50623"
         y="294.39532"
         id="text824"><tspan
           sodipodi:role="line"
           id="tspan43145-8"
           x="118.50623"
           y="294.39532"
           style="fill:#0a141e;fill-opacity:1;stroke-width:0.69225">IN / OUT</tspan></text></g><g
       id="crontab"><path
         style="fill:#ffffff"
         d="m 60,340 a 20,20 0 0 0 -20,20 v 40 a 20,20 0 0 0 20,20 h 260 a 20,20 0 0 0 20,-20 v -40 a 20,20 0 0 0 -20,-20 z"
         id="path888" /><path
         d="m 64.22692,401.88885 c -1.44125,-0.18504 -3.11026,-0.92058 -4.26481,-1.87951 -1.1522,-0.95693 -2.16857,-2.48756 -2.69335,-4.05593 l -0.23031,-0.68829 -0.0267,-12.91233 c -0.0263,-12.7427 -0.024,-12.92338 0.17579,-13.7663 0.62212,-2.62294 2.54757,-4.82496 5.11071,-5.84487 0.69103,-0.27496 2.05444,-0.56453 2.65811,-0.56453 h 0.37515 l 0.0318,-1.4177 c 0.0314,-1.39832 0.0359,-1.42353 0.33114,-1.84367 0.85799,-1.22096 2.57434,-1.22096 3.43226,0 0.29522,0.42011 0.29974,0.44534 0.33113,1.84367 l 0.0318,1.4177 h 8.42579 l 0.0318,-1.4177 c 0.0314,-1.39832 0.0359,-1.42353 0.33115,-1.84367 0.85799,-1.22096 2.57434,-1.22096 3.43225,0 0.29522,0.42011 0.29975,0.44534 0.33114,1.84367 l 0.0318,1.4177 h 8.42581 l 0.0318,-1.4177 c 0.0314,-1.39832 0.0359,-1.42353 0.33114,-1.84367 0.85799,-1.22096 2.57434,-1.22096 3.43225,0 0.29522,0.42011 0.29975,0.44534 0.33115,1.84367 l 0.0318,1.4177 h 0.37514 c 0.20633,0 0.74503,0.0697 1.1971,0.15505 3.22241,0.60787 5.80994,3.07288 6.57473,6.26332 0.18559,0.77419 0.19392,1.19123 0.19458,9.73974 l 7.4e-4,8.93147 -0.5314,-0.62244 c -0.81042,-0.94927 -1.90784,-1.7975 -3.09882,-2.39528 -4.10097,-2.05843 -8.94268,-1.26986 -12.16125,1.98083 -2.15759,2.17899 -3.23686,5.17821 -2.97503,8.26701 0.21531,2.53983 1.22336,4.64155 3.13886,6.54451 L 88.33723,402 76.61987,401.9876 c -6.44444,-0.006 -12.0219,-0.0515 -12.39353,-0.0993 z m 8.73253,-11.49933 c 0.19361,-0.17002 0.38911,-0.46141 0.44529,-0.66372 0.0551,-0.19836 0.0994,-1.09072 0.0985,-1.98305 -0.002,-1.38158 -0.0294,-1.68349 -0.18835,-2.03379 -0.2991,-0.65889 -0.58818,-0.75922 -2.30734,-0.80089 -2.00915,-0.0487 -2.44678,0.0157 -2.89494,0.42628 l -0.35807,0.32799 -0.0302,2.01764 c -0.0337,2.25009 0.0112,2.46086 0.60024,2.82 0.2847,0.17363 0.50444,0.19198 2.30218,0.19231 l 1.98747,3.7e-4 0.34513,-0.30307 z m -0.09,-9.33486 c 0.56624,-0.35001 0.63655,-0.64483 0.63638,-2.66817 -2.1e-4,-2.04116 -0.0739,-2.32884 -0.68805,-2.68585 -0.29504,-0.17149 -0.55314,-0.20484 -1.81014,-0.23393 -2.01188,-0.0466 -2.44729,0.0178 -2.89495,0.42788 l -0.35805,0.32799 -0.0302,2.01764 c -0.0336,2.25009 0.0112,2.46086 0.60024,2.82001 0.28424,0.17333 0.50418,0.19198 2.26944,0.19231 1.78853,3e-4 1.98195,-0.0165 2.27534,-0.19784 z m 9.4382,0 c 0.56623,-0.35001 0.63655,-0.64483 0.63638,-2.66817 0,-2.04116 -0.0739,-2.32884 -0.68805,-2.68585 -0.31409,-0.18256 -0.51171,-0.2 -2.26569,-0.2 -2.13083,0 -2.26752,0.0344 -2.65442,0.66906 -0.17189,0.28195 -0.19161,0.50394 -0.19194,2.16107 -3.6e-4,2.07877 0.0702,2.39493 0.60819,2.72296 0.29754,0.18142 0.49299,0.19847 2.28013,0.1988 1.78853,3e-4 1.98195,-0.0165 2.27534,-0.19784 z m 10.86129,18.63285 c -2.28383,-0.62393 -4.07605,-2.47584 -4.57739,-4.72975 -0.21194,-0.95281 -0.15137,-2.37148 0.14012,-3.28224 0.59678,-1.86462 2.20698,-3.46153 4.09315,-4.05925 0.55183,-0.17488 0.92199,-0.21809 1.86795,-0.21809 0.94603,0 1.3161,0.0432 1.86794,0.21809 1.8628,0.5903 3.32203,2.00377 4.06478,3.93711 0.2303,0.59952 0.25465,0.79456 0.25465,2.03948 0,1.24491 -0.0244,1.43997 -0.25465,2.03946 -0.72123,1.87745 -2.04006,3.19419 -3.89356,3.88727 -0.84554,0.31619 -2.70021,0.40356 -3.56306,0.16783 z m 5.02893,-4.57305 c 0.48159,-0.13377 1.02648,-0.74734 1.11172,-1.25184 0.0709,-0.41976 -0.10596,-0.98608 -0.41755,-1.33703 -0.32642,-0.36765 -0.90718,-0.55066 -1.75477,-0.55295 l -0.79996,-0.002 -0.0377,-1.01806 c -0.0348,-0.94065 -0.0592,-1.04625 -0.32001,-1.38829 -0.35174,-0.46121 -1.03326,-0.78194 -1.48253,-0.69765 -0.49645,0.0931 -0.96129,0.45488 -1.20529,0.93785 -0.20418,0.40422 -0.2212,0.56979 -0.2212,2.15104 0,1.03311 0.0461,1.86697 0.11615,2.10082 0.12429,0.41488 0.73356,1.01955 1.09962,1.0913 0.44785,0.0878 3.57163,0.0615 3.91147,-0.0329 z"
         style="fill:#0a141e"
         id="path890" /><text
         style="font-style:normal;font-variant:normal;font-weight:normal;font-stretch:normal;font-size:36.4196px;font-family:Impact;-inkscape-font-specification:'Impact, Normal';font-variant-ligatures:normal;font-variant-caps:normal;font-variant-numeric:normal;font-variant-east-asian:normal;fill:#0a141e;fill-opacity:1;stroke-width:0.692251;stroke-linejoin:round;paint-order:fill markers stroke"
         x="118.71976"
         y="394.39532"
         id="text893"><tspan
           sodipodi:role="line"
           id="tspan43145-4-6"
           x="118.71976"
           y="394.39532"
           style="fill:#0a141e;fill-opacity:1;stroke-width:0.692251">CRONTAB</tspan></text></g><g
       id="sysmsg"><path
         style="fill:#ffffff"
         d="m 380,40 a 20,20 0 0 0 -20,20 v 40 a 20,20 0 0 0 20,20 h 260 a 20,20 0 0 0 20,-20 V 60 A 20,20 0 0 0 640,40 Z"
         id="path958" /><path
         d="m 398.46119,104.93135 c -2.62064,-0.47979 -4.98796,-2.25312 -6.28454,-4.70767 l -0.43597,-0.825284 h 16.52164 l -0.4319,0.817224 c -1.17278,2.21917 -3.24408,3.90937 -5.58565,4.55783 -0.74707,0.20689 -3.00197,0.30101 -3.78354,0.15791 z M 388.26321,94.708053 c -3.73724,-0.0672 -4.0378,-0.126316 -5.41326,-1.065295 -2.58511,-1.764715 -3.58785,-5.401811 -2.2714,-8.239333 0.49169,-1.059702 1.09328,-1.768544 2.57596,-3.035439 1.76523,-1.508253 2.52789,-2.355903 3.05501,-3.39525 0.81313,-1.603295 0.87518,-1.946015 0.95852,-5.292306 0.0542,-2.174847 0.12283,-3.212348 0.2536,-3.833731 0.53238,-2.529627 1.57759,-4.556152 3.2839,-6.367033 1.73606,-1.842505 3.53807,-2.921861 5.9047,-3.536778 l 0.93903,-0.244002 0.0521,-1.581894 c 0.0562,-1.705688 0.12564,-1.956084 0.69495,-2.508055 1.01432,-0.983439 2.68746,-0.74298 3.37774,0.485375 0.30033,0.534481 0.30755,0.582305 0.30852,2.046016 l 7.9e-4,1.498756 1.06949,0.270441 c 4.23116,1.069933 7.56859,4.207047 8.93028,8.394276 0.47759,1.468324 0.55226,2.084033 0.63906,5.270032 0.0927,3.402671 0.15436,3.802817 0.79083,5.133443 0.48068,1.004995 1.06034,1.635091 3.12575,3.39765 2.3264,1.985315 2.97278,2.916986 3.34479,4.820755 0.55107,2.820432 -0.89741,5.844685 -3.43204,7.165724 -0.21984,0.114583 -0.75978,0.302784 -1.19986,0.418224 -0.76969,0.201902 -1.23726,0.210778 -12.27718,0.233053 -6.31246,0.01274 -12.93294,-0.0033 -14.71164,-0.03495 z"
         style="fill:#0a141e"
         id="path960" /><text
         style="font-style:normal;font-variant:normal;font-weight:normal;font-stretch:normal;font-size:36.4196px;font-family:Impact;-inkscape-font-specification:'Impact, Normal';font-variant-ligatures:normal;font-variant-caps:normal;font-variant-numeric:normal;font-variant-east-asian:normal;fill:#0a141e;fill-opacity:1;stroke-width:0.69225;stroke-linejoin:round;paint-order:fill markers stroke"
         x="438.50623"
         y="94.395309"
         id="text963"><tspan
           sodipodi:role="line"
           id="tspan43145-47"
           x="438.50623"
           y="94.395309"
           style="fill:#0a141e;fill-opacity:1;stroke-width:0.69225">SYSMSG</tspan></text></g><g
       id="root"><path
         style="fill:#ffffff"
         d="m 380,140 a 20,20 0 0 0 -20,20 v 40 a 20,20 0 0 0 20,20 h 260 a 20,20 0 0 0 20,-20 v -40 a 20,20 0 0 0 -20,-20 z"
         id="path967" /><path
         d="m 384.2535,201.849 c -2.89136,-0.61292 -5.28496,-2.89952 -6.05535,-5.78466 L 378,195.32225 v -30.66721 l 0.19815,-0.74207 c 0.73294,-2.74493 2.97153,-4.98236 5.71787,-5.71493 L 384.65848,158 h 30.68304 l 0.74246,0.19804 c 2.74633,0.73257 4.98493,2.97 5.71787,5.71493 L 422,164.65504 v 30.66721 l -0.19815,0.74209 c -0.72417,2.712 -2.92794,4.93264 -5.67015,5.71357 l -0.70016,0.19939 -15.20621,0.0169 c -14.34646,0.016 -15.24941,0.008 -15.97149,-0.1452 z m 10.95809,-7.25081 c 0.42184,-0.17612 0.79672,-0.52919 1.0176,-0.95839 0.15861,-0.30821 0.17171,-0.55699 0.17171,-3.26003 v -2.92636 h 7.19854 v 2.92636 c 0,2.70303 0.0131,2.95185 0.17173,3.26003 0.63679,1.23736 2.16408,1.46264 3.13726,0.46275 0.51074,-0.52473 0.5601,-0.87037 0.5601,-3.92259 v -2.72665 h 2.72805 c 3.05373,0 3.39958,-0.0494 3.9246,-0.5598 1.00039,-0.97269 0.775,-2.4992 -0.46297,-3.13565 -0.30837,-0.15853 -0.55728,-0.17163 -3.26171,-0.17163 h -2.92787 v -7.19482 h 2.92787 c 2.70443,0 2.95337,-0.0131 3.26171,-0.17163 1.238,-0.63646 1.4634,-2.16297 0.46297,-3.13566 -0.52499,-0.51047 -0.87081,-0.5598 -3.9246,-0.5598 h -2.72805 v -2.72664 c 0,-3.05216 -0.0494,-3.39783 -0.5601,-3.9226 -0.97318,-0.99986 -2.50048,-0.77458 -3.13726,0.46275 -0.15862,0.30819 -0.17173,0.557 -0.17173,3.26003 v 2.92636 h -7.19854 v -2.92636 c 0,-2.70303 -0.0131,-2.95186 -0.17171,-3.26003 -0.63679,-1.23736 -2.16409,-1.46264 -3.13728,-0.46275 -0.51073,0.52472 -0.5601,0.87038 -0.5601,3.9226 v 2.72664 h -2.72804 c -3.05372,0 -3.39958,0.0494 -3.92461,0.5598 -1.00039,0.97269 -0.77499,2.4992 0.46298,3.13566 0.30836,0.15853 0.55728,0.17163 3.26171,0.17163 h 2.92788 v 7.19482 h -2.92788 c -2.70442,0 -2.95338,0.0131 -3.26171,0.17163 -1.238,0.63646 -1.4634,2.16296 -0.46298,3.13565 0.52499,0.51047 0.87082,0.5598 3.92461,0.5598 h 2.72804 v 2.72665 c 0,2.14099 0.0285,2.82255 0.1327,3.17322 0.31595,1.06341 1.54417,1.66377 2.54706,1.24505 z m 1.23078,-11.12376 c -0.024,-0.0625 -0.033,-1.67166 -0.0201,-3.57589 l 0.0236,-3.46217 h 7.10811 v 7.10445 l -3.53408,0.0235 c -2.78312,0.0186 -3.5434,-6.1e-4 -3.57775,-0.0902 z"
         style="fill:#0a141e"
         id="path969" /><text
         style="font-style:normal;font-variant:normal;font-weight:normal;font-stretch:normal;font-size:37.1766px;font-family:Impact;-inkscape-font-specification:'Impact, Normal';font-variant-ligatures:normal;font-variant-caps:normal;font-variant-numeric:normal;font-variant-east-asian:normal;fill:#0a141e;fill-opacity:1;stroke-width:0.706639;stroke-linejoin:round;paint-order:fill markers stroke"
         x="448.92783"
         y="191.02931"
         transform="scale(0.97963754,1.0207857)"
         id="text972"><tspan
           sodipodi:role="line"
           id="tspan43145-4-2"
           x="448.92783"
           y="191.02931"
           style="fill:#0a141e;fill-opacity:1;stroke-width:0.706639">ROOT</tspan></text></g><g
       id="free"><path
         style="fill:#ffffff"
         d="m 380,240 a 20,20 0 0 0 -20,20 v 40 a 20,20 0 0 0 20,20 h 260 a 20,20 0 0 0 20,-20 v -40 a 20,20 0 0 0 -20,-20 z"
         id="path976" /><path
         d="m 395.6749,301.89893 c -3.806,-0.39786 -7.87572,-2.00599 -10.59967,-4.18873 -3.87763,-3.10671 -6.41802,-8.00709 -6.97545,-13.456 -0.76537,-7.48148 2.92101,-14.91801 9.38188,-18.92504 2.91131,-1.80576 6.57809,-2.89888 9.72373,-2.89888 1.47112,0 2.02676,0.2615 2.52566,1.18863 0.22151,0.41162 0.22263,0.44869 0.2514,8.39778 l 0.0289,7.9846 h 7.75479 c 5.3141,0 7.89743,0.0359 8.2075,0.1141 0.60809,0.15313 1.23283,0.7057 1.45467,1.28669 0.15153,0.39676 0.16908,0.68497 0.11479,1.88522 -0.12386,2.7391 -0.72594,5.11363 -1.93179,7.61847 -2.94797,6.12403 -8.7974,10.24122 -15.6282,11.00014 -1.15283,0.12805 -3.04742,0.12511 -4.30808,-0.007 z m 9.90125,-26.58251 c -0.25054,-0.13227 -0.59505,-0.43859 -0.76559,-0.68069 l -0.31007,-0.44019 -0.0279,-7.28397 c -0.0308,-8.04584 -0.0621,-7.63056 0.6253,-8.30243 0.54483,-0.5327 1.06051,-0.66359 2.32637,-0.59051 4.138,0.23891 8.04781,2.13506 10.71982,5.19914 2.30426,2.64221 3.59181,5.78007 3.83312,9.34198 0.0797,1.17645 -0.0409,1.71235 -0.50401,2.2398 -0.69237,0.78861 -0.29907,0.7528 -8.30052,0.75534 l -7.14117,0.002 -0.45552,-0.2405 z"
         style="fill:#0a141e"
         id="path978" /><text
         style="font-style:normal;font-variant:normal;font-weight:normal;font-stretch:normal;font-size:36.4196px;font-family:Impact;-inkscape-font-specification:'Impact, Normal';font-variant-ligatures:normal;font-variant-caps:normal;font-variant-numeric:normal;font-variant-east-asian:normal;fill:#0a141e;fill-opacity:1;stroke-width:0.69225;stroke-linejoin:round;paint-order:fill markers stroke"
         x="438.50623"
         y="294.39529"
         id="text981"><tspan
           sodipodi:role="line"
           id="tspan43145-8-8"
           x="438.50623"
           y="294.39529"
           style="fill:#0a141e;fill-opacity:1;stroke-width:0.69225">FREE DISK</tspan></text></g><g
       id="network"><path
         style="fill:#ffffff"
         d="m 380,340 a 20,20 0 0 0 -20,20 v 40 a 20,20 0 0 0 20,20 h 260 a 20,20 0 0 0 20,-20 v -40 a 20,20 0 0 0 -20,-20 z"
         id="path1049" /><path
         d="m 378.13035,402.83649 c -0.4316,-0.22784 -0.7318,-0.52681 -0.9433,-0.9395 -0.1785,-0.34853 -0.187,-0.6754 -0.187,-7.21718 0,-7.64017 -0.039,-7.19658 0.6912,-7.85713 0.2069,-0.18709 0.5451,-0.38713 0.7517,-0.44455 0.2137,-0.0594 1.3375,-0.10463 2.6082,-0.10494 l 2.2326,-5.1e-4 0.028,-3.53391 0.028,-3.5339 0.2949,-0.41774 c 0.1622,-0.22975 0.4718,-0.51023 0.6881,-0.62328 0.3858,-0.20172 0.5166,-0.20605 7.0034,-0.23218 l 6.6102,-0.0266 v -4.22701 h -2.1681 c -1.327,0 -2.3449,-0.0446 -2.6238,-0.11488 -0.5646,-0.1423 -1.2409,-0.78394 -1.3988,-1.32708 -0.078,-0.2673 -0.1014,-2.35626 -0.081,-7.11844 0.029,-6.61528 0.033,-6.74738 0.235,-7.13371 0.1129,-0.21646 0.3932,-0.52641 0.6227,-0.68876 L 392.93985,357 h 14.1203 l 0.4175,0.29519 c 0.2296,0.16235 0.5099,0.4723 0.6228,0.68876 0.2015,0.3863 0.2059,0.51837 0.2349,7.13371 0.021,4.76211 0,6.85115 -0.081,7.11844 -0.158,0.54315 -0.8344,1.1848 -1.3989,1.32708 -0.279,0.0703 -1.2968,0.11488 -2.6238,0.11488 h -2.1682 v 4.22701 l 6.6103,0.0266 c 6.4868,0.0261 6.6176,0.0305 7.0035,0.23218 0.2161,0.11305 0.5258,0.39353 0.6879,0.62328 l 0.2949,0.41774 0.028,3.5339 0.028,3.53391 2.2326,5.9e-4 c 1.2705,2.9e-4 2.3945,0.0455 2.6082,0.10494 0.4577,0.1272 1.1305,0.7156 1.3105,1.14591 0.1067,0.2552 0.1323,1.64493 0.1323,7.16315 0,6.11052 -0.017,6.88037 -0.1589,7.16146 -0.2244,0.44449 -0.5203,0.74712 -0.9429,0.96408 -0.3482,0.17869 -0.6746,0.18718 -7.2039,0.18718 -6.5761,0 -6.8537,-0.007 -7.2132,-0.19099 -0.4974,-0.25399 -0.9618,-0.79856 -1.0911,-1.27942 -0.071,-0.26402 -0.096,-2.5527 -0.078,-7.06116 l 0.027,-6.67057 0.2729,-0.46476 c 0.177,-0.30138 0.4361,-0.5608 0.7372,-0.73797 l 0.4642,-0.2732 4.7673,-0.0619 v -4.21837 h -25.1628 v 4.21837 l 4.7672,0.0619 0.4643,0.2732 c 0.3011,0.17717 0.5602,0.43658 0.7371,0.73797 l 0.273,0.46476 0.027,6.67057 c 0.018,4.50853 -0.01,6.79712 -0.078,7.06116 -0.1293,0.48087 -0.5938,1.02541 -1.091,1.27942 -0.36,0.18377 -0.6332,0.19084 -7.2339,0.18705 -6.0601,-0.003 -6.8943,-0.0221 -7.1548,-0.15956 z"
         style="fill:#0a141e"
         id="path1051" /><text
         style="font-style:normal;font-variant:normal;font-weight:normal;font-stretch:normal;font-size:36.4196px;font-family:Impact;-inkscape-font-specification:'Impact, Normal';font-variant-ligatures:normal;font-variant-caps:normal;font-variant-numeric:normal;font-variant-east-asian:normal;fill:#0a141e;fill-opacity:1;stroke-width:0.692251;stroke-linejoin:round;paint-order:fill markers stroke"
         x="438.71976"
         y="394.39532"
         id="text1054"><tspan
           sodipodi:role="line"
           id="tspan43145-4-6-6"
           x="438.71976"
           y="394.39532"
           style="fill:#0a141e;fill-opacity:1;stroke-width:0.692251">NETWORK</tspan></text></g><g
       id="journal"><path
         style="fill:#ffffff"
         d="m 700,40 a 20,20 0 0 0 -20,20 v 40 a 20,20 0 0 0 20,20 h 260 a 20,20 0 0 0 20,-20 V 60 A 20,20 0 0 0 960,40 Z"
         id="path1123" /><path
         d="m 704.36688,101.93046 c -2.8246,-0.55959 -5.11743,-2.625248 -6.10757,-5.502456 L 698,95.674487 V 64.310533 l 0.30804,-0.882074 c 0.89977,-2.576293 2.77801,-4.390329 5.39218,-5.207549 L 704.40686,58 h 31.18622 l 0.70665,0.2216 c 2.69061,0.84379 4.6345,2.787015 5.47858,5.476688 L 742,64.404679 v 31.175349 l -0.22045,0.701746 c -0.83135,2.646508 -2.6769,4.528416 -5.33847,5.443696 l -0.75377,0.25921 -15.45214,0.0141 c -8.54189,0.008 -15.63869,-0.0229 -15.86905,-0.0686 z m 29.18008,-7.673568 c 0.46451,-0.193973 0.8529,-0.569395 1.06674,-1.031058 0.42745,-0.922979 0.01,-1.999949 -0.97178,-2.504522 -0.33912,-0.174367 -0.74712,-0.179753 -13.64173,-0.179753 -12.89479,0 -13.30252,0.0056 -13.64171,0.179753 -1.52267,0.782964 -1.50698,2.793228 0.0274,3.503299 0.36109,0.167119 0.93001,0.174511 13.59438,0.176491 11.73943,0.0022 13.2566,-0.0143 13.56752,-0.144202 z m 0.38793,-8.454144 c 0.44149,-0.292108 0.85532,-1.029076 0.85603,-1.524468 0.002,-0.832417 -0.63478,-1.716684 -1.3841,-1.924719 -0.49308,-0.136873 -11.62498,-0.13624 -12.11821,6.28e-4 -0.48787,0.135429 -1.0553,0.669415 -1.24835,1.174805 -0.33614,0.879888 0.0342,1.903454 0.85857,2.372707 l 0.37296,0.21229 12.26235,-0.04624 0.40063,-0.265078 z m -26.24822,-0.294584 c 0.14581,-0.03254 1.65093,-0.983798 3.34475,-2.113958 3.46559,-2.312315 3.54529,-2.388749 3.54529,-3.401364 0,-1.012758 -0.0793,-1.088839 -3.54875,-3.403695 -2.13243,-1.422822 -3.20758,-2.084997 -3.48671,-2.147587 -0.75498,-0.169127 -1.52373,0.149829 -2.00277,0.830932 l -0.28396,0.403747 -0.0293,4.065589 c -0.0208,2.88252 0.002,4.175223 0.0798,4.44231 0.21197,0.731403 0.74904,1.220794 1.50409,1.370618 0.33096,0.06568 0.38793,0.06265 0.87751,-0.04656 z m 25.66876,-7.697588 c 0.57217,-0.144025 1.19424,-0.752245 1.34617,-1.316228 0.22411,-0.831995 -0.0796,-1.642368 -0.79815,-2.12936 l -0.45164,-0.306101 -12.18038,0.0032 -0.37296,0.21117 c -1.4202,0.804164 -1.2415,2.963119 0.29049,3.50902 0.48989,0.17455 11.48363,0.200224 12.16625,0.0284 z m 0.19138,-8.324873 c 0.72043,-0.300829 1.24121,-1.04963 1.24121,-1.784564 0,-0.734933 -0.52081,-1.483715 -1.24121,-1.78457 -0.31104,-0.129873 -1.82943,-0.146266 -13.54703,-0.146266 -14.45931,0 -13.54774,-0.03518 -14.16818,0.546565 -1.00449,0.941624 -0.72119,2.546485 0.55365,3.136462 0.36109,0.167129 0.93001,0.174512 13.59438,0.176491 11.73944,0.0019 13.2566,-0.01426 13.56751,-0.1442 z"
         style="fill:#0a141e"
         id="path1125" /><text
         style="font-style:normal;font-variant:normal;font-weight:normal;font-stretch:normal;font-size:36.4196px;font-family:Impact;-inkscape-font-specification:'Impact, Normal';font-variant-ligatures:normal;font-variant-caps:normal;font-variant-numeric:normal;font-variant-east-asian:normal;fill:#0a141e;fill-opacity:1;stroke-width:0.69225;stroke-linejoin:round;paint-order:fill markers stroke"
         x="758.50623"
         y="94.395309"
         id="text1128"><tspan
           sodipodi:role="line"
           id="tspan43145-7"
           x="758.50623"
           y="94.395309"
           style="fill:#0a141e;fill-opacity:1;stroke-width:0.69225">JOURNAL</tspan></text></g><g
       id="update"><path
         style="fill:#ffffff"
         d="m 700,140 a 20,20 0 0 0 -20,20 v 40 a 20,20 0 0 0 20,20 h 260 a 20,20 0 0 0 20,-20 v -40 a 20,20 0 0 0 -20,-20 z"
         id="path1132" /><path
         d="m 718.81775,204.90628 c -0.14802,-0.0448 -0.4295,-0.164 -0.62552,-0.26487 -0.55786,-0.28708 -9.74813,-5.90078 -10.64764,-6.50406 -5.17379,-3.46892 -8.61506,-9.03793 -9.39057,-15.19571 -0.15232,-1.20992 -0.17082,-2.63589 -0.14347,-11.059 l 0.0314,-9.67022 0.3145,-0.61765 c 0.35347,-0.69419 1.09351,-1.43831 1.77398,-1.78378 0.25008,-0.12697 4.65253,-1.26137 9.78356,-2.5209 C 718.17393,155.26237 719.3416,155 720.11067,155 c 0.8983,0 1.04713,0.0345 16.37088,3.7966 1.91467,0.47006 3.45014,0.90612 3.7857,1.07505 0.62208,0.31319 1.07862,0.77422 1.44809,1.46219 l 0.24225,0.45115 0.0329,9.34966 c 0.0351,9.97714 -0.006,11.15196 -0.46764,13.43669 -1.02958,5.09547 -4.02053,9.80244 -8.21403,12.92701 -1.48795,1.10862 -11.26772,7.04146 -12.02631,7.29582 -0.64899,0.21756 -1.92369,0.2754 -2.46413,0.1118 z m 0.032,-19.16092 c 0.39341,-0.18283 1.78961,-1.49225 5.93697,-5.56813 3.46141,-3.40169 5.50517,-5.48855 5.65093,-5.76992 0.3102,-0.5988 0.31096,-1.56364 0.002,-2.16059 -0.26187,-0.50547 -0.87286,-1.0736 -1.38229,-1.28549 -0.51719,-0.21504 -1.50816,-0.18143 -2.0651,0.07 -0.34121,0.15407 -1.65561,1.38366 -4.79474,4.48539 -2.3786,2.3502 -4.36608,4.2731 -4.41665,4.2731 -0.0506,0 -0.84032,-0.74852 -1.75499,-1.66334 -2.02274,-2.02323 -2.34735,-2.23768 -3.38096,-2.23383 -1.08328,0.004 -1.84493,0.45501 -2.34123,1.38622 -0.31612,0.59314 -0.31501,1.65452 0.002,2.24385 0.12658,0.23507 1.16365,1.34351 2.30451,2.4632 3.10765,3.0498 3.85931,3.72848 4.27573,3.86039 0.63319,0.20061 1.39961,0.16121 1.96372,-0.10097 z"
         style="fill:#0a141e"
         id="path1134" /><text
         style="font-style:normal;font-variant:normal;font-weight:normal;font-stretch:normal;font-size:37.1766px;font-family:Impact;-inkscape-font-specification:'Impact, Normal';font-variant-ligatures:normal;font-variant-caps:normal;font-variant-numeric:normal;font-variant-east-asian:normal;fill:#0a141e;fill-opacity:1;stroke-width:0.706639;stroke-linejoin:round;paint-order:fill markers stroke"
         x="775.57922"
         y="191.02933"
         transform="scale(0.97963754,1.0207857)"
         id="text1137"><tspan
           sodipodi:role="line"
           id="tspan43145-4-9"
           x="775.57922"
           y="191.02933"
           style="fill:#0a141e;fill-opacity:1;stroke-width:0.706639">UPDATE</tspan></text></g><g
       id="hdd"><path
         style="fill:#ffffff"
         d="m 700,240 a 20,20 0 0 0 -20,20 v 40 a 20,20 0 0 0 20,20 h 260 a 20,20 0 0 0 20,-20 v -40 a 20,20 0 0 0 -20,-20 z"
         id="path1141" /><path
         d="m 707.3432,304.87075 c -2.85901,-0.61464 -5.08182,-2.30187 -6.36197,-4.82906 -0.84125,-1.66086 -0.97596,-2.46561 -0.97775,-5.84505 v -2.75577 H 740 l -0.046,3.07683 c -0.0527,3.52417 -0.10093,3.80213 -0.96687,5.53836 -1.11124,2.22819 -2.81291,3.67603 -5.33284,4.53769 l -1.12693,0.38532 -12.25867,0.0174 c -9.87985,0.014 -12.38789,-0.0109 -12.92472,-0.12575 z m 24.69714,-4.66884 c 1.00994,-0.32769 1.71805,-1.35505 1.61957,-2.34955 -0.0785,-0.79345 -0.55915,-1.47618 -1.29205,-1.83633 -0.32955,-0.16187 -0.77081,-0.2943 -0.98067,-0.2943 -1.34689,0 -2.45027,1.02884 -2.45027,2.28468 0,1.57435 1.57773,2.69045 3.10342,2.19545 z m -32.03832,-20.2126 v -6.84935 h 39.97914 v 13.69901 h -39.97914 z m 16.33468,2.03338 c 1.0021,-0.55042 1.50494,-1.57932 1.24224,-2.54178 -0.17464,-0.63967 -0.61534,-1.18072 -1.24224,-1.52507 l -0.48703,-0.26754 -3.73334,-0.0344 c -4.03194,-0.0372 -4.59837,0.0141 -5.29145,0.47892 -0.53043,0.35579 -0.9699,1.19693 -0.9699,1.8564 0,1.02379 0.79054,1.99396 1.82247,2.23653 0.25092,0.059 2.10974,0.0953 4.30686,0.0841 l 3.86536,-0.0197 z m -16.33378,-16.24023 c 0,-3.37945 0.13639,-4.1842 0.97764,-5.84506 1.15487,-2.27988 2.85352,-3.71464 5.42628,-4.58319 L 707.45604,255 h 25.06986 l 1.01242,0.33365 c 2.54539,0.83886 4.30865,2.32474 5.46306,4.60374 0.84136,1.66086 0.97596,2.46561 0.97775,5.84506 v 2.75577 H 700 v -2.75577 z m 16.357,-1.82413 c 1.84502,-0.93406 1.63785,-3.53155 -0.33347,-4.17946 -0.25597,-0.0841 -1.63651,-0.12339 -4.33827,-0.12339 -3.33279,0 -4.02812,0.0264 -4.37347,0.16621 -1.63965,0.66372 -1.96527,2.80441 -0.59392,3.9039 0.22231,0.17824 0.55331,0.36647 0.73558,0.4183 0.18217,0.0519 2.12713,0.0986 4.32211,0.10392 l 3.99077,0.01 0.59067,-0.29904 z"
         style="fill:#0a141e"
         id="path1143" /><text
         style="font-style:normal;font-variant:normal;font-weight:normal;font-stretch:normal;font-size:36.4196px;font-family:Impact;-inkscape-font-specification:'Impact, Normal';font-variant-ligatures:normal;font-variant-caps:normal;font-variant-numeric:normal;font-variant-east-asian:normal;fill:#0a141e;fill-opacity:1;stroke-width:0.69225;stroke-linejoin:round;paint-order:fill markers stroke"
         x="758.50623"
         y="294.39536"
         id="text1146"><tspan
           sodipodi:role="line"
           id="tspan43145-8-84"
           x="758.50623"
           y="294.39536"
           style="fill:#0a141e;fill-opacity:1;stroke-width:0.69225">HDD / RAID</tspan></text></g><g
       id="users"><path
         style="fill:#ffffff"
         d="m 700,340 a 20,20 0 0 0 -20,20 v 40 a 20,20 0 0 0 20,20 h 260 a 20,20 0 0 0 20,-20 v -40 a 20,20 0 0 0 -20,-20 z"
         id="path1150" /><path
         d="m 708.35205,402.93654 c -0.5482,-0.13115 -1.0596,-0.51465 -1.3568,-1.01756 -0.3804,-0.64374 -0.3645,-1.3241 0.071,-3.04646 0.8887,-3.51288 2.3771,-6.12116 4.9692,-8.70869 1.0547,-1.05268 1.6932,-1.59048 2.5895,-2.18068 2.0045,-1.32 4.0015,-2.16339 6.31,-2.665 0.9593,-0.20842 1.3641,-0.23573 3.4654,-0.23381 2.0716,0.002 2.513,0.0317 3.4136,0.23032 6.9234,1.52682 12.0952,6.4746 13.8043,13.20618 0.6634,2.6126 0.4921,3.56975 -0.7578,4.23472 l -0.4266,0.227 -15.8789,0.0158 c -8.7335,0.009 -16.0246,-0.0191 -16.2039,-0.0619 z m -9.0896,-7.81119 c -0.5074,-0.22928 -1.02,-0.79177 -1.1908,-1.30657 -0.3268,-0.98454 0.5014,-4.13263 1.7297,-6.57546 2.475,-4.9227 7.0436,-8.47409 12.3325,-9.58611 0.7569,-0.15918 0.8824,-0.16354 0.9596,-0.0333 1.4974,2.52757 2.0698,3.27257 3.3481,4.35751 0.4305,0.36539 0.7734,0.70257 0.762,0.74927 -0.011,0.0467 -0.3752,0.22802 -0.8083,0.40293 -3.8438,1.55213 -7.3115,4.38838 -9.6878,7.92386 -0.6476,0.9634 -1.6633,2.86241 -2.0444,3.82248 l -0.1736,0.43731 -2.4059,-0.002 c -2.1032,-0.002 -2.4581,-0.0258 -2.8206,-0.18964 z m 23.4308,-13.74405 c -3.3829,-0.71249 -6.0328,-3.19879 -6.9566,-6.52723 -0.1768,-0.63643 -0.2178,-1.07591 -0.2178,-2.32793 0,-1.25201 0.041,-1.69149 0.2178,-2.32792 0.751,-2.70598 2.7695,-5.0052 5.279,-6.01351 1.0245,-0.41158 1.7868,-0.57294 2.9707,-0.6288 3.5178,-0.16597 6.7622,1.76427 8.3324,4.95736 0.6806,1.38428 0.9243,2.44205 0.9243,4.01286 0,3.54351 -1.8773,6.56743 -5.0433,8.12373 -1.1789,0.57953 -2.0731,0.79023 -3.5411,0.83421 -0.8468,0.0254 -1.525,-0.0101 -1.9654,-0.10283 z m -11.3705,-7.6462 c -0.8312,-0.48636 -2.0579,-1.61726 -2.6402,-2.43396 -0.6013,-0.84316 -1.1439,-1.94346 -1.4095,-2.85777 -0.3151,-1.0844 -0.3868,-3.05889 -0.1529,-4.2078 0.71,-3.4888 3.1727,-6.09662 6.6252,-7.01533 0.6366,-0.16941 1.1261,-0.22024 2.1205,-0.22024 1.5357,0 2.5885,0.23529 3.8802,0.86716 0.8996,0.44013 2.369,1.53585 2.7234,2.0309 l 0.2214,0.30927 -0.4891,0.0729 c -0.7851,0.11711 -2.5925,0.74495 -3.4151,1.18635 -1.5783,0.84679 -3.2706,2.28756 -4.2404,3.61011 -1.7073,2.32831 -2.5925,5.14441 -2.4794,7.88681 0.026,0.63666 0.018,1.15756 -0.018,1.15756 -0.036,0 -0.3631,-0.17363 -0.7257,-0.38585 z"
         style="fill:#0a141e"
         id="path1152" /><text
         style="font-style:normal;font-variant:normal;font-weight:normal;font-stretch:normal;font-size:36.4196px;font-family:Impact;-inkscape-font-specification:'Impact, Normal';font-variant-ligatures:normal;font-variant-caps:normal;font-variant-numeric:normal;font-variant-east-asian:normal;fill:#0a141e;fill-opacity:1;stroke-width:0.692251;stroke-linejoin:round;paint-order:fill markers stroke"
         x="758.71973"
         y="394.39532"
         id="text1155"><tspan
           sodipodi:role="line"
           id="tspan43145-4-6-3"
           x="758.71973"
           y="394.39532"
           style="fill:#0a141e;fill-opacity:1;stroke-width:0.692251">USERS</tspan></text></g><path
       d="m 653.82582,559.57352 c -3.33835,-0.82056 -6.40761,-2.61132 -8.81945,-5.14571 -2.3564,-2.47605 -3.80713,-5.11895 -4.58025,-8.34464 C 640.00958,544.34554 640,543.53483 640,510.00513 c 0,-33.52954 0.01,-34.34057 0.42612,-36.07804 1.59532,-6.65526 6.84497,-11.90548 13.49955,-13.50093 C 655.66311,460.00958 656.47374,460 690,460 c 33.52611,0 34.33705,0.01 36.07433,0.42616 3.4217,0.82037 6.46979,2.58247 8.91931,5.15629 2.3564,2.47605 3.80713,5.11895 4.58024,8.34464 0.41655,1.73763 0.42612,2.54834 0.42612,36.07804 0,33.40132 -0.0111,34.34699 -0.42142,36.0588 -1.59765,6.66472 -6.85988,11.92744 -13.52391,13.5253 -1.71309,0.41076 -2.63109,0.42111 -36.16088,0.40749 -33.13665,-0.0135 -34.46526,-0.029 -36.06792,-0.42288 z m 38.65782,-16.70947 c 0.45575,-0.31656 7.52434,-7.28645 15.70802,-15.4886 11.98808,-12.01527 14.93057,-15.07315 15.14244,-15.73704 0.40923,-1.28163 0.18879,-3.15693 -0.48514,-4.12744 -0.31271,-0.45028 -7.27865,-7.51517 -15.47996,-15.69953 -12.01404,-11.98931 -15.0716,-14.9321 -15.73543,-15.14399 -1.36817,-0.43695 -3.18753,-0.19 -4.24866,0.57665 -1.79882,1.2996 -2.45816,3.86826 -1.47699,5.75351 0.24766,0.47587 4.97915,5.37011 11.13049,11.51326 l 10.6997,10.68557 -47.77216,0.21371 -1.03234,0.53427 c -0.60096,0.31103 -1.31285,0.92258 -1.70363,1.46357 -0.6159,0.85258 -0.67132,1.06699 -0.67132,2.5969 0,1.52993 0.0554,1.74436 0.67132,2.5969 0.39081,0.54099 1.1027,1.15255 1.70363,1.46358 l 1.03234,0.53427 47.77216,0.2137 -10.6997,10.68557 c -6.15134,6.14315 -10.88272,11.03739 -11.13049,11.51327 -0.917,1.76198 -0.34871,4.38197 1.20804,5.5695 1.09484,0.83517 1.57689,0.97628 3.12407,0.91449 1.13152,-0.0452 1.58115,-0.17185 2.24372,-0.63207 z"
       id="login"
       style="fill:#ffffff" /><path
       d="m 773.9069,559.74581 c -6.2362,-1.38063 -11.0726,-5.73065 -13.2026,-11.87494 L 760,545.83924 v -71.64033 l 0.7043,-2.03163 c 1.9116,-5.51397 5.8674,-9.46784 11.384,-11.37854 l 2.0326,-0.70397 35.0889,-0.0576 c 38.778,-0.0637 36.5748,-0.13542 39.8948,1.29894 5.2978,2.28938 9.1815,6.87165 10.4874,12.37359 0.4357,1.83595 0.4392,2.17854 0.3825,36.9966 l -0.057,35.14253 -0.7043,2.03163 c -0.959,2.7662 -2.3882,5.08108 -4.3444,7.0362 -1.9561,1.95513 -4.2721,3.3837 -7.0396,4.34233 l -2.0326,0.70398 -35.3023,0.0384 c -28.6831,0.0311 -35.543,-0.0149 -36.586,-0.24586 z m 42.167,-14.65799 c 11.1561,-1.90636 21.7044,-9.71868 26.398,-19.55124 2.2021,-4.61323 3.4186,-9.87731 3.4274,-14.83136 0,-1.78047 -0.077,-2.35979 -0.422,-3.03502 -1.2541,-2.45714 -4.5607,-3.02715 -6.6447,-1.14549 -1.0082,0.91039 -1.1848,1.51348 -1.3681,4.67017 -0.4307,7.41776 -3.2846,13.69758 -8.417,18.52156 -3.7897,3.56173 -8.9512,6.1329 -14.1675,7.05737 -2.0613,0.3653 -6.9204,0.3658 -8.986,0 -3.6766,-0.64942 -7.6794,-2.26659 -10.9116,-4.40841 -2.1089,-1.39746 -5.608,-4.91235 -7.0255,-7.05738 -3.1989,-4.84049 -4.618,-9.53905 -4.618,-15.29023 0,-2.39747 0.1075,-3.81465 0.3886,-5.12117 1.2272,-5.70435 3.5927,-10.13025 7.4977,-14.02863 5.1741,-5.16512 11.639,-7.79516 19.1611,-7.79516 5.6229,0 10.5063,1.4424 15.004,4.43167 0.8087,0.53753 1.4704,1.05178 1.4704,1.1428 0,0.091 -0.3019,0.23176 -0.6708,0.31275 -1.0125,0.22227 -2.4166,1.74342 -2.7196,2.94616 -0.5425,2.15337 0.8569,4.48781 3.0158,5.03104 1.1836,0.2979 10.7638,0.33579 12.0071,0.0475 1.1119,-0.25784 2.2767,-1.2214 2.8629,-2.36829 0.4635,-0.90689 0.4813,-1.15198 0.4802,-6.61695 0,-3.48073 -0.093,-6.00411 -0.2375,-6.52569 -0.3028,-1.0901 -1.5639,-2.35064 -2.6545,-2.65329 -2.7236,-0.75576 -4.9578,0.54691 -5.5436,3.23229 l -0.1274,0.58389 -1.8691,-1.3823 c -9.7544,-7.21391 -23.6782,-8.70295 -35.1515,-3.75916 -9.1469,3.94152 -16.5166,11.93668 -19.6601,21.32994 -1.373,4.1024 -1.5949,5.65976 -1.5949,11.19297 0,4.3927 0.059,5.29039 0.4696,7.12987 1.6013,7.1743 4.6335,12.6764 9.8683,17.90567 5.6601,5.65495 11.3691,8.64682 19.1659,10.04444 3.0935,0.55447 8.2868,0.549 11.5709,-0.0122 z"
       id="reboot"
       style="fill:#ffffff" /><path
       d="m 893.8258,559.57352 c -3.3383,-0.82056 -6.4076,-2.61132 -8.8194,-5.14571 -2.3564,-2.47605 -3.8072,-5.11895 -4.5803,-8.34464 C 880.0096,544.34554 880,543.53483 880,510.00513 c 0,-33.52954 0.01,-34.34057 0.4261,-36.07804 1.5953,-6.65526 6.845,-11.90548 13.4996,-13.50093 C 895.6631,460.00958 896.4737,460 930,460 c 33.5261,0 34.337,0.01 36.0743,0.42616 3.4217,0.82037 6.4698,2.58247 8.9193,5.15629 2.3564,2.47605 3.8072,5.11895 4.5803,8.34464 0.4165,1.73763 0.4261,2.54834 0.4261,36.07804 0,33.40132 -0.011,34.34699 -0.4214,36.0588 -1.5977,6.66472 -6.8599,11.92744 -13.5239,13.5253 -1.7131,0.41076 -2.6311,0.42111 -36.1609,0.40749 -33.1367,-0.0135 -34.4653,-0.029 -36.0679,-0.42288 z m 42.1581,-13.95373 c 10.7963,-1.83844 20.3041,-8.17682 26.0144,-17.34259 8.5922,-13.79249 7.4403,-31.53242 -2.8683,-44.17552 -3.9169,-4.80383 -11.4162,-10.21882 -14.144,-10.21305 -1.2064,0.003 -2.2812,0.48548 -3.2627,1.46586 -2.3006,2.29797 -1.7503,5.55732 1.2279,7.27331 5.4883,3.16238 9.0861,6.5958 11.7837,11.2456 5.0772,8.75143 5.0045,20.34949 -0.1816,28.95347 -1.4547,2.41369 -2.7448,4.0053 -5.029,6.2039 -3.875,3.7301 -8.3809,6.0909 -13.9515,7.31001 -2.9032,0.63536 -8.2437,0.63567 -11.1274,0 -6.0513,-1.33255 -10.7511,-3.94151 -14.9453,-8.29655 -5.3497,-5.55492 -7.9777,-12.10215 -7.9707,-19.85743 0.01,-7.22811 2.7218,-14.02698 7.747,-19.39901 2.149,-2.29718 4.019,-3.81698 6.8887,-5.59916 2.4469,-1.5195 3.1779,-2.35952 3.4768,-3.99537 0.4639,-2.53856 -1.9437,-5.30039 -4.6253,-5.30616 -0.9148,-0.002 -2.1436,0.52547 -4.2272,1.81456 -13.9096,8.6051 -20.9756,24.62744 -17.7479,40.24539 2.8751,13.91447 13.631,25.25254 27.3928,28.87493 1.3249,0.34881 3.1782,0.73476 4.1185,0.85766 0.9402,0.12291 1.998,0.26455 2.3506,0.31476 1.2517,0.17827 7.2932,-0.0726 9.0818,-0.37717 z m -4.6846,-33.29393 c 1.0835,-0.32466 2.2383,-1.30487 2.821,-2.39462 0.4735,-0.88558 0.4746,-0.91375 0.4746,-12.428 0,-6.3472 -0.073,-11.88528 -0.1634,-12.30699 -0.2145,-1.00609 -1.5144,-2.50329 -2.6026,-2.99761 -2.5825,-1.17314 -5.7197,0.46548 -6.3068,3.29413 -0.1697,0.81754 -0.2244,4.5764 -0.1798,12.36277 0.064,11.13019 0.067,11.1927 0.5444,12.08676 1.0905,2.04072 3.3039,3.0154 5.4127,2.38356 z"
       id="poweroff"
       style="fill:#ff4651" /></g></svg>
