<?xml version="1.0" encoding="UTF-8"?>
<svg version="1.1" viewBox="0 0 682.67 682.67" xmlns="http://www.w3.org/2000/svg">
<path d="m300.88 625.12c-12.498-1.4277-18.966-4.4664-25.328-11.9-6.7481-7.8837-8.8823-15.293-8.8823-30.838 0-14.97-1.5999-20.13-7.8793-25.414-10.574-8.8974-20.032-7.4493-33.34 5.1046-5.0061 4.7225-12.004 9.8699-15.55 11.439-7.9009 3.495-21.58 3.7666-29.207 0.57992-16.874-7.0504-66.707-57.42-73.307-74.096-2.9691-7.5022-3.1402-21.596-0.34252-28.224 1.1354-2.6898 6.2965-9.4548 11.469-15.034 10.541-11.369 12.967-17.029 10.745-25.077-1.4928-5.4063-6.6179-12.183-11.066-14.632-1.5709-0.86484-9.7562-1.949-18.19-2.4092-17.074-0.93178-22.794-2.9859-30.19-10.841-10.251-10.889-12.451-22.092-12.467-63.503-0.01187-30.124 1.83-49.433 5.3785-56.389 3.3377-6.5424 12.141-13.92 19.671-16.486 3.3814-1.1522 10.565-2.0757 16.178-2.0798 5.5527-4e-3 12.468-0.66593 15.367-1.4708 10.915-3.0302 18.18-15.154 15.311-25.547-0.858-3.1074-4.8494-8.7-10.754-15.068-11.47-12.37-14.426-18.422-14.465-29.616-0.0377-10.78 1.678-14.654 13.523-30.535 12.346-16.553 30.165-34.411 46.467-46.568 16.733-12.479 19.622-13.86 28.915-13.825 9.76 0.037 15.78 2.7811 27.733 12.642 12.095 9.9777 14.311 11.379 20.036 12.67 6.0734 1.3698 12.717-0.46399 18.104-4.997 6.101-5.1337 7.8601-10.519 7.8601-24.064 0-14.01 2.3227-21.841 8.681-29.269 9.2093-10.759 23.677-13.632 68.652-13.632 31.314 0 48.856 1.6427 55.897 5.2344 6.7349 3.4359 14.103 12.163 16.698 19.779 1.168 3.4278 2.0724 10.561 2.0724 16.345 0 14.365 1.039 18.175 6.5302 23.941 9.884 10.38 20.576 9.711 33.316-2.0838 4.3284-4.0074 10.743-8.5569 14.254-10.11 7.4076-3.2768 19.876-3.8426 27.64-1.2545 15.844 5.2817 68.008 57.368 74.881 74.769 2.964 7.5042 3.1328 21.603 0.3378 28.224-1.1354 2.6898-6.2965 9.4548-11.469 15.034-10.541 11.369-12.967 17.029-10.745 25.077 1.4928 5.4063 6.618 12.183 11.066 14.632 1.5709 0.86484 9.7562 1.949 18.19 2.4092 17.074 0.93178 22.794 2.9859 30.19 10.841 10.251 10.889 12.451 22.092 12.467 63.503 0.012 30.124-1.83 49.433-5.3785 56.389-3.3377 6.5424-12.141 13.92-19.671 16.486-3.6987 1.2603-10.708 2.0724-17.887 2.0724-13.555 0-18.93 1.7587-24.08 7.8793-8.8974 10.574-7.4493 20.032 5.1046 33.34 4.7225 5.0061 9.8913 12.03 11.486 15.608 3.3375 7.488 3.8685 19.61 1.2082 27.579-5.4162 16.225-57.885 68.489-75.285 74.992-7.996 2.9884-21.045 3.1087-27.71 0.25549-2.6898-1.1514-9.4548-6.3256-15.034-11.498-11.369-10.541-17.029-12.967-25.077-10.745-6.3126 1.743-12.865 7.2753-15.181 12.817-1.0831 2.5922-1.8306 9.3585-1.848 16.729-0.0225 9.5455-0.64976 13.748-2.7421 18.376-5.9836 13.234-17.5 20.715-34.987 22.725-13.366 1.537-63.069 1.3645-77.365-0.26859zm65.938-191.1c33.507-9.0168 59.924-35.53 68.543-68.792 13.404-51.727-18.573-104.32-71.359-117.37-9.4379-2.3333-33.229-2.3333-42.667 0-35.935 8.884-63.185 36.13-72.152 72.139-2.5961 10.426-2.2233 34.577 0.69976 45.333 2.7619 10.163 9.8767 24.848 16.148 33.331 14.581 19.721 38.156 33.654 63.97 37.807 6.9434 1.1172 29.03-0.34925 36.816-2.4444z"/>
</svg>