<?xml version="1.0" encoding="UTF-8"?>
<svg version="1.1" viewBox="0 0 682.67 682.67" xmlns="http://www.w3.org/2000/svg">
<path d="m258 651.12c-10.014-5.2791-15.333-13.867-15.333-24.754 0-3.8918 9.9-56.555 22-117.03s22-110.41 22-110.98c0-0.56262-24.624-1.0229-54.72-1.0229-51.165 0-55.041-0.16483-59.667-2.5369-14.551-7.462-19.46-25.033-11.025-39.463 8.141-13.927 230.22-317.28 235.15-321.21 4.2893-3.4179 6.4774-4.1234 14.131-4.5558 6.7174-0.37957 10.227 0.08089 13.592 1.7833 10.446 5.285 15.869 13.813 15.869 24.953 0 3.8918-9.9 56.555-22 117.03s-22 110.41-22 110.98c0 0.56262 24.624 1.0229 54.72 1.0229 51.165 0 55.041 0.16483 59.667 2.5369 9.8825 5.068 14.947 13.821 14.947 25.832 0 5.7154-0.87272 8.5535-4.4206 14.376-5.5085 9.0404-225.2 311.18-230.05 316.38-5.6279 6.0385-12.448 8.8847-21.145 8.8245-4.3637-0.0301-9.4588-0.97013-11.72-2.1621z"/>
</svg>