<?xml version="1.0" encoding="UTF-8"?>
<svg version="1.1" viewBox="0 0 682.67 682.67" xmlns="http://www.w3.org/2000/svg">
<path d="m127.49 638.48c-19.546-2.5092-42.181-12.483-57.839-25.486-15.626-12.976-29.41-33.731-36.527-54.998l-3.1235-9.3333-0.36208-175.09c-0.35733-172.79-0.32605-175.24 2.3843-186.67 8.4372-35.567 34.55-65.426 69.311-79.256 9.3716-3.7284 27.862-7.6549 36.049-7.6549h5.0877l0.4317-19.224c0.42579-18.961 0.48723-19.303 4.4909-25 11.636-16.556 34.913-16.556 46.548 0 4.0037 5.6967 4.0651 6.0388 4.4909 25l0.43171 19.224h114.27l0.43171-19.224c0.42578-18.961 0.48722-19.303 4.4909-25 11.636-16.556 34.913-16.556 46.548 0 4.0037 5.6967 4.0651 6.0388 4.4909 25l0.43171 19.224h114.27l0.43171-19.224c0.42579-18.961 0.48723-19.303 4.4909-25 11.636-16.556 34.913-16.556 46.548 0 4.0037 5.6967 4.0651 6.0388 4.4909 25l0.4317 19.224h5.0877c2.7982 0 10.104 0.94613 16.235 2.1025 43.702 8.2426 78.794 41.668 89.166 84.93 2.5169 10.498 2.6299 16.153 2.6388 132.07l9e-3 121.11-7.2067-8.44c-10.991-12.872-25.874-24.374-42.026-32.48-55.617-27.912-121.28-17.219-164.93 26.86-29.261 29.547-43.898 70.216-40.347 112.1 2.92 34.44 16.591 62.939 42.569 88.743l13.088 13-158.91-0.16866c-87.399-0.0928-163.04-0.69878-168.08-1.3467zm118.43-155.93c2.6257-2.3054 5.277-6.2567 6.039-9 0.74707-2.6897 1.3485-14.79 1.3364-26.89-0.0187-18.734-0.3978-22.828-2.5544-27.578-4.0564-8.9345-7.9768-10.295-31.292-10.86-27.248-0.66015-33.183 0.21373-39.261 5.7803l-4.8561 4.4476-0.40888 27.359c-0.456 30.511 0.15235 33.369 8.1403 38.239 3.8612 2.3543 6.8413 2.6032 31.222 2.6077l26.954 5e-3 4.6807-4.1097zm-1.2205-126.58c7.6793-4.7461 8.6329-8.7437 8.6306-36.18-3e-3 -27.678-1.0019-31.579-9.3313-36.42-4.0013-2.3253-7.5017-2.7776-24.549-3.172-27.285-0.63119-33.19 0.24145-39.261 5.802l-4.8561 4.4476-0.40888 27.359c-0.456 30.511 0.15235 33.369 8.1403 38.239 3.8549 2.3505 6.8376 2.6032 30.778 2.6077 24.256 4e-3 26.879-0.22344 30.858-2.6827zm128 0c7.6793-4.7461 8.6329-8.7437 8.6306-36.18-3e-3 -27.678-1.0019-31.579-9.3313-36.42-4.2596-2.4755-6.9398-2.712-30.727-2.712-28.898 0-30.752 0.46708-35.999 9.0724-2.3312 3.8232-2.5986 6.8334-2.603 29.304-5e-3 28.188 0.95204 32.475 8.2481 36.923 4.0352 2.4602 6.686 2.6913 30.923 2.6958 24.256 4e-3 26.879-0.22344 30.858-2.6827zm147.3 252.66c-30.973-8.4604-55.279-33.572-62.078-64.135-2.8744-12.92-2.053-32.157 1.9002-44.507 8.0934-25.284 29.931-46.938 55.511-55.043 7.484-2.3713 12.504-2.9572 25.333-2.9572 12.83 0 17.849 0.58596 25.333 2.9572 25.263 8.0045 45.053 27.171 55.126 53.387 3.1233 8.1293 3.4535 10.774 3.4535 27.655s-0.3302 19.526-3.4535 27.655c-9.7811 25.458-27.667 43.313-52.804 52.711-11.467 4.2876-36.62 5.4722-48.322 2.2758zm68.202-62.01c6.5313-1.8141 13.921-10.134 15.077-16.975 0.96164-5.692-1.4369-13.371-5.6628-18.13-4.4268-4.9853-12.303-7.4669-23.798-7.4979l-10.849-0.0293-0.51103-13.805c-0.47214-12.755-0.80236-14.187-4.3399-18.825-4.7703-6.2541-14.013-10.603-20.106-9.46-6.7328 1.2631-13.037 6.168-16.346 12.717-2.7691 5.4813-3 7.7265-3 29.168 0 14.009 0.62527 25.316 1.5753 28.487 1.6856 5.6258 9.9485 13.825 14.913 14.798 6.0736 1.1903 48.438 0.83361 53.047-0.4466z"/>
</svg>