<?xml version="1.0" encoding="UTF-8"?>
<svg version="1.1" viewBox="0 0 682.67 682.67" xmlns="http://www.w3.org/2000/svg">
<path d="m285.48 623.81c-49.099-5.1323-101.6-25.877-136.74-54.034-50.023-40.076-82.795-103.29-89.986-173.58-9.8737-96.51 37.682-192.44 121.03-244.13 37.557-23.294 84.86-37.395 125.44-37.395 18.978 0 26.146 3.3732 32.582 15.333 2.8576 5.3098 2.8719 5.7881 3.243 108.33l0.37271 103h100.04c68.554 0 101.88 0.46326 105.88 1.472 7.8446 1.9753 15.904 9.1034 18.766 16.598 1.9546 5.1181 2.181 8.836 1.4808 24.319-1.598 35.334-9.3651 65.965-24.921 98.277-38.03 78.999-113.49 132.11-201.61 141.9-14.872 1.6518-39.313 1.6139-55.576-0.086zm127.73-342.91c-3.232-1.7063-7.6764-5.6577-9.8764-8.7808l-4-5.6784-0.3597-93.962c-0.39732-103.79-0.80082-98.433 8.0667-107.1 7.0285-6.8717 13.681-8.5602 30.011-7.6174 53.382 3.0819 103.82 27.542 138.29 67.068 29.726 34.084 46.336 74.562 49.449 120.51 1.0283 15.176-0.52728 22.089-6.502 28.893-8.9318 10.173-3.8581 9.7111-107.08 9.7439l-92.124 0.0293-5.8764-3.1024z"/>
</svg>