<?xml version="1.0" encoding="UTF-8"?>
<svg version="1.1" viewBox="0 0 682.67 682.67" xmlns="http://www.w3.org/2000/svg">
<path d="m321.65 653.28c-33.489-6.0072-63.741-28.21-80.31-58.942l-5.5713-10.333h211.13l-5.5193 10.232c-14.987 27.785-41.456 48.947-71.379 57.066-9.5468 2.5904-38.362 3.7688-48.35 1.9772zm-130.32-128c-47.758-0.84102-51.599-1.5816-69.176-13.338-33.035-22.095-45.849-67.633-29.026-103.16 6.2832-13.268 13.971-22.143 32.918-38.005 22.558-18.884 32.304-29.497 39.04-42.51 10.391-20.074 11.184-24.365 12.249-66.262 0.69246-27.23 1.5695-40.22 3.2407-48 6.8033-31.672 20.16-57.045 41.965-79.718 22.185-23.069 45.213-36.583 75.456-44.282l12-3.055 0.66679-19.806c0.71898-21.356 1.6055-24.491 8.8808-31.402 12.962-12.313 34.343-9.3024 43.164 6.0772 3.8381 6.6919 3.9303 7.2907 3.9425 25.617l0.012 18.765 13.667 3.3861c54.07 13.396 96.719 52.674 114.12 105.1 6.1031 18.384 7.0573 26.093 8.1666 65.983 1.1848 42.603 1.9725 47.613 10.106 64.273 6.1426 12.583 13.55 20.472 39.944 42.54 29.729 24.857 37.989 36.522 42.743 60.358 7.042 35.313-11.468 73.178-43.858 89.718-2.8094 1.4346-9.7094 3.7909-15.333 5.2363-9.836 2.5279-15.811 2.639-156.89 2.9179-80.667 0.15945-165.27-0.0376-188-0.43796z"/>
</svg>