<?xml version="1.0" encoding="UTF-8"?>
<svg version="1.1" viewBox="0 0 682.67 682.67" xmlns="http://www.w3.org/2000/svg">
<path d="m188.63 651.32c-34.517-7.6575-61.353-28.678-76.808-60.163-10.157-20.692-11.783-30.718-11.804-72.821l-0.01752-34.333h482.88l-0.55222 38.333c-0.63251 43.906-1.2183 47.369-11.673 69-13.416 27.76-33.96 45.798-64.383 56.533l-13.606 4.8007-148 0.21643c-119.28 0.17441-149.56-0.1296-156.04-1.5666zm298.17-58.167c12.194-4.0826 20.743-16.882 19.553-29.272-0.94986-9.8852-6.7496-18.391-15.599-22.878-3.9779-2.0167-9.3054-3.6667-11.839-3.6667-16.261 0-29.582 12.818-29.582 28.464 0 19.614 19.048 33.519 37.468 27.352zm-386.8-251.82v-85.333h482.67v170.67h-482.67zm197.21 25.333c12.098-6.8574 18.169-19.676 14.997-31.667-2.108-7.9692-7.4288-14.71-14.997-19l-5.8808-3.3333-45.072-0.42844c-48.679-0.46272-55.517 0.17592-63.884 5.9667-6.4045 4.4325-11.711 14.912-11.711 23.128 0 12.755 9.5449 24.842 22.003 27.864 3.0301 0.73492 25.471 1.1872 51.997 1.0479l46.667-0.24504zm-197.2-202.33c0.0215-42.103 1.6467-52.129 11.804-72.821 13.943-28.404 34.451-46.279 65.512-57.1l12.667-4.4129h302.67l12.223 4.1568c30.73 10.451 52.018 28.963 65.956 57.356 10.157 20.692 11.783 30.718 11.804 72.821l0.0175 34.333h-482.67l0.0175-34.333zm197.48-22.726c22.275-11.637 19.773-43.998-4.0261-52.07-3.0899-1.048-19.758-1.5373-52.376-1.5373-40.237 0-48.632 0.32922-52.801 2.0707-19.796 8.2691-23.728 34.939-7.1708 48.637 2.6842 2.2206 6.6803 4.5657 8.8803 5.2115 2.2 0.64576 25.681 1.2282 52.181 1.2944l48.181 0.12027 7.1317-3.7256z"/>
</svg>