<?xml version="1.0" encoding="UTF-8"?>
<svg version="1.1" viewBox="0 0 682.67 682.67" xmlns="http://www.w3.org/2000/svg">
<path d="m96.649 616.27c-14.234-4.9221-26.617-15.141-32.639-26.935-6.8856-13.485-6.6769-8.4638-6.6769-160.7 0-136.51 0.09352-141.91 2.6293-151.83 3.5937-14.051 10.86-27.285 20.567-37.461 9.1028-9.5418 211.29-161.19 222.44-166.84 22.043-11.17 54.697-11.161 76.763 0.02073 11.258 5.7048 213.29 157.23 222.4 166.8 9.7134 10.205 16.976 23.44 20.567 37.48 2.5359 9.9152 2.6293 15.315 2.6293 151.93 0 137.31-0.0807 141.91-2.6348 150.18-4.942 16-15.064 27.57-30.534 34.9l-8.8312 4.1843-66.667 0.41157c-45.189 0.27898-68.258-0.0547-71.607-1.0355-6.4742-1.8965-12.472-7.0604-16.119-13.877l-2.9415-5.499-0.36802-93.667-0.36804-93.667h-169.26v90.743c0 60.986-0.47585 92.633-1.4511 96.506-1.8689 7.4219-8.2405 15.102-15.121 18.228-5.0448 2.2913-10.036 2.4642-70.761 2.4509-58.502-0.0133-66.032-0.25592-72.017-2.3255z"/>
</svg>