<?xml version="1.0" encoding="UTF-8"?>
<svg version="1.1" viewBox="0 0 682.67 682.67" xmlns="http://www.w3.org/2000/svg">
<path d="m233.33 520.67v-87.333h216v174.67h-216zm-132.16 80.941c-5.1921-2.7124-8.2251-5.4942-11.152-10.229l-4.0206-6.503-0.34392-243.6-0.34392-243.6 3.7362-7.1519c2.7232-5.2128 5.4994-8.2421 10.239-11.173l6.5029-4.0206 176.55-0.34785c169.55-0.33406 176.77-0.24969 182.1 2.1282 3.8852 1.7307 23.661 20.175 65.695 61.272 51.11 49.97 60.616 59.858 63.333 65.872l3.197 7.0762 0.34708 185.49 0.34709 185.49-3.7394 7.158c-2.725 5.2163-5.5024 8.2486-10.239 11.179l-6.4994 4.0206-74.217 0.78548v-104.11c0-100.7-0.0855-104.28-2.6082-109.23-2.9686-5.8189-9.3873-11.679-15.682-14.317-6.3523-2.6619-279.73-2.6619-286.09 0-6.295 2.6379-12.714 8.4977-15.682 14.317-2.5228 4.945-2.6082 8.5213-2.6082 109.17v104.05h-71.696z"/>
</svg>