<?xml version="1.0" encoding="UTF-8"?>
<svg version="1.1" viewBox="0 0 682.67 682.67" xmlns="http://www.w3.org/2000/svg">
<path d="m120.1 651.9c-39.972-7.9217-72.419-37.164-86.431-77.895l-3.6695-10.667v-444l4.3592-12.487c12.733-36.471 39.313-62.151 76.307-73.72l10-3.1273h441.33l10 3.1371c38.076 11.945 65.585 39.454 77.53 77.53l3.1371 10v441.33l-3.1196 9.9342c-11.765 37.465-37.882 64.106-75.547 77.063l-10.667 3.6695-218.67 0.19896c-120.88 0.11-221.31-0.32392-224.57-0.97027zm412.94-108.63c6.5736-2.7459 12.07-8.0605 15.096-14.596 6.0491-13.066 0.13539-28.312-13.752-35.455-4.7989-2.4684-10.573-2.5446-193.05-2.5446-182.48 0-188.25 0.0761-193.05 2.5446-21.548 11.084-21.326 39.542 0.38645 49.594 5.1101 2.3659 13.161 2.4705 192.38 2.4985 166.13 0.026 187.6-0.20228 192-2.0414zm5.4899-119.68c6.2478-4.1352 12.104-14.568 12.114-21.581 0.0165-11.784-8.9829-24.302-19.587-27.247-6.9778-1.9377-164.51-1.9287-171.49 9e-3 -6.9041 1.9172-14.934 9.4765-17.666 16.631-4.757 12.456 0.48433 26.946 12.15 33.589l5.2779 3.0052 173.53-0.6544 5.6695-3.7525zm-371.45-4.1703c2.0634-0.46053 23.363-13.927 47.333-29.926 49.043-32.734 50.171-33.816 50.171-48.151 0-14.337-1.1226-15.414-50.22-48.184-30.177-20.142-45.392-29.516-49.342-30.402-10.684-2.3943-21.563 2.121-28.342 11.763l-4.0184 5.7156-0.41518 57.554c-0.29436 40.806 0.0345 59.106 1.13 62.887 2.9997 10.354 10.6 17.282 21.285 19.403 4.6835 0.92983 5.4898 0.88702 12.418-0.65937zm363.25-108.97c8.0969-2.0388 16.9-10.649 19.05-18.633 3.1716-11.778-1.1267-23.25-11.295-30.144l-6.3912-4.3333-172.37 0.0439-5.2779 2.9894c-20.098 11.384-17.569 41.947 4.1109 49.675 6.9324 2.471 162.51 2.8344 172.17 0.40212zm2.7081-117.85c10.195-4.2587 17.565-14.859 17.565-25.263s-7.3702-21.004-17.565-25.263c-4.4016-1.8386-25.889-2.0707-191.71-2.0707-204.62 0-191.72-0.49793-200.5 7.7374-14.215 13.33-10.206 36.049 7.8348 44.401 5.1101 2.3659 13.161 2.4705 192.38 2.4985 166.13 0.026 187.6-0.20228 192-2.0414z"/>
</svg>