<?xml version="1.0" encoding="UTF-8"?>
<svg version="1.1" viewBox="0 0 682.67 682.67" xmlns="http://www.w3.org/2000/svg">
<path d="m115.62 650.59c-20.83-5.1195-39.981-16.292-55.03-32.104-14.703-15.448-23.755-31.937-28.579-52.062-2.599-10.841-2.6588-15.899-2.6588-225.09 0-209.19 0.05974-214.25 2.6588-225.09 9.9542-41.522 42.71-74.278 84.232-84.232 10.841-2.599 15.899-2.6588 225.09-2.6588 209.19 0 214.25 0.05975 225.09 2.6588 21.35 5.1183 40.369 16.112 55.653 32.17 14.703 15.448 23.755 31.937 28.579 52.062 2.599 10.841 2.6588 15.899 2.6588 225.09 0 208.39-0.0689 214.29-2.6295 224.97-9.9687 41.581-42.803 74.415-84.384 84.384-10.689 2.5627-16.417 2.6273-225.63 2.5423-206.76-0.084-215.05-0.18118-225.05-2.6383zm241.21-104.25c2.8437-1.975 46.949-45.46 98.012-96.633 74.801-74.963 93.161-94.041 94.483-98.183 2.5534-7.9961 1.178-19.696-3.0271-25.751-1.9512-2.8093-45.416-46.887-96.589-97.949-74.963-74.801-94.041-93.161-98.183-94.483-8.5369-2.7261-19.889-1.1854-26.51 3.5977-11.224 8.1082-15.338 24.134-9.2159 35.896 1.5453 2.969 31.068 33.504 69.45 71.831l66.762 66.667-298.08 1.3333-6.4414 3.3333c-3.7498 1.9405-8.1917 5.756-10.63 9.1312-3.843 5.3192-4.1888 6.6569-4.1888 16.202 0 9.5452 0.34584 10.883 4.1888 16.202 2.4385 3.3752 6.8804 7.1907 10.63 9.1312l6.4414 3.3333 298.08 1.3333-66.762 66.667c-38.382 38.327-67.904 68.862-69.45 71.831-5.7217 10.993-2.1758 27.339 7.5377 34.748 6.8314 5.2106 9.8392 6.091 19.493 5.7055 7.0603-0.28191 9.8658-1.0722 14-3.9435z"/>
</svg>