<?xml version="1.0" encoding="UTF-8"?>
<svg version="1.1" viewBox="0 0 682.67 682.67" xmlns="http://www.w3.org/2000/svg">
<path d="m136.53 576.23c-35.984-39.364-58.162-79.486-70.51-127.56-11.69-45.512-10.214-102.87 3.8514-149.64 21.672-72.065 72.488-133.51 139.74-168.95 78.433-41.339 171.85-43.172 251.06-4.9268 89.762 43.34 149.52 125.49 162.11 222.85 2.3477 18.156 1.9885 56.233-0.69813 74-8.7063 57.576-31.608 105.82-71.544 150.7l-11.201 12.59-394.67-0.1672-8.1323-8.8961zm224.02-128.78c9.3087-4.5543 18.524-14.702 21.633-23.821 1.4489-4.2505 2.4063-11.113 2.4591-17.627l0.0865-10.667 17.062-26.404c9.3841-14.522 17.69-28.204 18.457-30.404 2.48-7.1141 0.73657-19.176-3.6801-25.46-9.7182-13.827-30.356-16.14-42.779-4.793-1.5824 1.4452-10.882 15.14-20.667 30.434-17.085 26.705-18.001 27.86-23.134 29.155-17.026 4.2953-30.403 21.888-30.522 40.139-0.12826 19.728 11.596 36.043 30.299 42.161 8.4963 2.7794 21.99 1.5902 30.786-2.7132zm-172.18-39.528c11.264-3.1281 19.63-14.743 19.63-27.253 0-21.632-21.543-34.946-40.921-25.289-16.777 8.3605-21 29.901-8.5661 43.693 8.2203 9.1179 18.219 12.081 29.857 8.8496zm326.01-0.6516c12.884-5.3673 20.784-19.846 17.672-32.386-4.3638-17.581-22.562-27.438-38.424-20.812-19.32 8.0704-23.831 33.201-8.5629 47.701 7.487 7.1106 19.868 9.4318 29.315 5.4961zm-273.05-115.26c21.175-10.803 20.175-42.16-1.6354-51.273-12.314-5.1452-27.009-1.055-34.788 9.6829-3.47 4.7902-4.2373 7.2185-4.6337 14.664-0.39639 7.445 0.0557 9.9168 2.7298 14.923 7.4936 14.029 24.138 19.242 38.327 12.003zm229.04-0.84818c3.1331-1.8164 7.3331-5.7756 9.3333-8.7982 3.172-4.7932 3.6368-6.8118 3.6368-15.795 0-9.4358-0.35203-10.785-4.1979-16.095-7.8174-10.792-22.487-14.893-34.827-9.7371-16.706 6.9802-22.416 28.443-11.43 42.964 9.0909 12.016 24.379 15.059 37.485 7.4611zm-117.32-46.559c15.462-6.4589 21.789-23.713 14.246-38.85-10.483-21.037-40.072-21.084-50.538-0.0811-5.6093 11.256-3.9913 23.307 4.3195 32.17 7.6898 8.2006 21.523 11.126 31.972 6.7611z"/>
</svg>