<?xml version="1.0" encoding="UTF-8"?>
<svg version="1.1" viewBox="0 0 682.67 682.67" xmlns="http://www.w3.org/2000/svg">
<path d="m44.667 651.12c-5.8563-3.0874-9.9283-7.1387-12.796-12.731-2.422-4.7228-2.5369-9.1521-2.5369-97.798 0-103.53-0.52967-97.519 9.376-106.47 2.806-2.5351 7.3944-5.2458 10.196-6.0239 2.8992-0.80505 18.144-1.4178 35.38-1.422l30.285-7e-3 0.38138-47.887 0.38138-47.887 4-5.6606c2.2-3.1133 6.4-6.914 9.3333-8.446 5.2337-2.7334 7.0082-2.7921 95-3.1461l89.667-0.3607v-57.279h-29.41c-18.001 0-31.808-0.60389-35.592-1.5567-7.658-1.9283-16.832-10.623-18.975-17.983-1.0543-3.6221-1.3746-31.929-1.0914-96.46 0.39336-89.642 0.45235-91.432 3.1862-96.667 1.532-2.9333 5.3336-7.1333 8.4482-9.3333l5.6628-4h191.54l5.6628 4c3.1145 2.2 6.9162 6.4 8.4482 9.3333 2.7338 5.2346 2.7928 7.0242 3.1862 96.667 0.28316 64.53-0.0372 92.838-1.0914 96.46-2.1423 7.3601-11.317 16.055-18.975 17.983-3.7839 0.9528-17.591 1.5567-35.592 1.5567h-29.41v57.279l89.667 0.3607c87.992 0.35398 89.766 0.41274 95 3.1461 2.9333 1.532 7.1333 5.3327 9.3333 8.446l4 5.6606 0.38138 47.887 0.38138 47.887 30.285 8e-3c17.235 4e-3 32.48 0.617 35.38 1.422 6.2074 1.7237 15.335 9.6969 17.776 15.528 1.4477 3.4581 1.7962 22.29 1.7962 97.066 0 82.802-0.23178 93.234-2.156 97.043-3.0432 6.0231-7.0581 10.124-12.791 13.064-4.7227 2.4214-9.1508 2.5364-97.72 2.5364-89.203 0-92.968-0.0996-97.846-2.5881-6.7463-3.4417-13.046-10.821-14.8-17.337-0.96339-3.5777-1.3057-34.591-1.0561-95.684l0.36927-90.391 3.7021-6.2979c2.4007-4.084 5.916-7.5993 10-10l6.2979-3.7021 64.667-0.83836v-57.162h-341.33v57.162l64.667 0.83836 6.2979 3.7021c4.084 2.4007 7.5993 5.916 10 10l3.7021 6.2979 0.36927 90.391c0.24959 61.094-0.0927 92.106-1.0561 95.684-1.7546 6.5161-8.0541 13.895-14.8 17.337-4.8815 2.4903-8.5886 2.5861-98.126 2.5347-82.204-0.0472-93.52-0.29925-97.053-2.1621z"/>
</svg>