<?xml version="1.0" encoding="UTF-8"?>
<svg version="1.1" viewBox="0 0 682.67 682.67" xmlns="http://www.w3.org/2000/svg">
<path d="m115.62 650.59c-20.83-5.1195-39.981-16.292-55.03-32.104-14.703-15.448-23.755-31.937-28.579-52.062-2.599-10.841-2.6588-15.899-2.6588-225.09 0-209.19 0.05974-214.25 2.6588-225.09 9.9542-41.522 42.71-74.278 84.232-84.232 10.841-2.599 15.899-2.6588 225.09-2.6588 209.19 0 214.25 0.05975 225.09 2.6588 21.35 5.1183 40.369 16.112 55.653 32.17 14.703 15.448 23.755 31.937 28.579 52.062 2.599 10.841 2.6588 15.899 2.6588 225.09 0 208.39-0.0689 214.29-2.6295 224.97-9.9687 41.581-42.803 74.415-84.384 84.384-10.689 2.5627-16.417 2.6273-225.63 2.5423-206.76-0.084-215.05-0.18118-225.05-2.6383zm242.88-124.51c8.3608-4.2367 16.751-13.816 19.592-22.367 2.7155-8.1755 2.0784-22.269-1.3021-28.806-3.6834-7.123-11.465-14.863-18.708-18.607-9.2388-4.7765-23.879-4.9662-32.751-0.42436-7.6355 3.9085-15.418 11.291-19.103 18.122-3.8717 7.1762-4.1554 27.004-0.48275 33.746 5.6618 10.395 16.217 18.921 26.92 21.747 6.6317 1.7509 18.828 0.14096 25.836-3.4105zm-111.56-114.89c2.2763-1.1771 8.9213-6.2129 14.767-11.191 47.943-40.827 111.31-40.827 159.26 0 13.498 11.495 17.129 13.331 26.358 13.331 20.674 0 34.6-20.921 26.183-39.333-3.1849-6.9667-19.317-22.155-33.686-31.716-31.812-21.167-67.251-31.301-104.48-29.877-34.49 1.3184-63.39 10.683-92.617 30.012-14.192 9.3853-30.364 24.608-33.552 31.582-6.2251 13.617-0.1244 29.599 14.17 37.122 5.2935 2.7857 18.28 2.8251 23.605 0.0716zm-109.23-104.61c3.284-0.91198 9.7851-5.6177 18.667-13.512 45.014-40.009 89.691-61.21 146.96-69.739 17.983-2.6781 55.313-2.606 74.424 0.14374 42.694 6.1428 85.109 23.12 119.35 47.771 5.8612 4.2201 17.308 13.586 25.438 20.814 15.081 13.408 19.782 15.945 29.46 15.9 11.381-0.0533 23.744-10.446 26.602-22.362 1.373-5.7234 1.2906-7.9528-0.52469-14.197-1.8509-6.367-3.6935-8.8965-13.116-18.005-43.718-42.264-102.08-72.438-162.3-83.908-23.379-4.4537-36.855-5.6543-63.369-5.6456-28.599 9e-3 -51.549 2.7524-78.824 9.4216-53.969 13.196-111.01 45.048-147.63 82.437-7.4625 7.6188-9.4924 10.636-10.958 16.287-2.4814 9.566-0.56918 17.949 5.7883 25.377 8.0325 9.3842 18.201 12.506 30.035 9.2194z"/>
</svg>