<?xml version="1.0" encoding="UTF-8"?>
<svg version="1.1" viewBox="0 0 682.67 682.67" xmlns="http://www.w3.org/2000/svg">
<path d="m115.62 650.59c-20.83-5.1195-39.981-16.292-55.03-32.104-14.703-15.448-23.755-31.937-28.579-52.062-2.599-10.841-2.6588-15.899-2.6588-225.09 0-209.19 0.05974-214.25 2.6588-225.09 9.9542-41.522 42.71-74.278 84.232-84.232 10.841-2.599 15.899-2.6588 225.09-2.6588 209.19 0 214.25 0.05975 225.09 2.6588 21.35 5.1183 40.369 16.112 55.653 32.17 14.703 15.448 23.755 31.937 28.579 52.062 2.599 10.841 2.6588 15.899 2.6588 225.09 0 208.39-0.0689 214.29-2.6295 224.97-9.9687 41.581-42.803 74.415-84.384 84.384-10.689 2.5627-16.417 2.6273-225.63 2.5423-206.76-0.084-215.05-0.18118-225.05-2.6383zm263.05-87.057c67.365-11.47 126.69-51.015 162.32-108.2 53.612-86.051 46.425-196.73-17.897-275.61-24.44-29.971-71.233-63.755-88.253-63.719-7.5273 0.016-14.234 3.0289-20.358 9.1455-14.355 14.337-10.921 34.672 7.6613 45.378 34.245 19.73 56.694 41.151 73.526 70.161 31.68 54.6 31.226 126.96-1.1329 180.64-9.0768 15.059-17.127 24.989-31.379 38.706-24.179 23.272-52.294 38.001-87.052 45.607-18.115 3.964-51.438 3.9659-69.431 4e-3 -37.758-8.3138-67.083-24.591-93.253-51.762-33.38-34.657-49.778-75.505-49.734-123.89 0.0412-45.096 16.983-87.514 48.338-121.03 13.409-14.332 25.077-23.814 42.983-34.933 15.268-9.4801 19.829-14.721 21.694-24.927 2.8946-15.838-12.128-33.069-28.86-33.105-5.7082-0.0121-13.375 3.2784-26.376 11.321-86.791 53.687-130.88 153.65-110.74 251.09 17.939 86.812 85.052 157.55 170.92 180.15 8.2672 2.1762 19.831 4.5841 25.698 5.3509 5.8667 0.76677 12.467 1.6505 14.667 1.9638 7.8102 1.1122 45.507-0.45322 56.667-2.3532zm-29.23-207.72c6.761-2.0256 13.966-8.1411 17.602-14.94 2.9546-5.5251 2.9613-5.7009 2.9613-77.538 0-39.6-0.45886-74.152-1.0197-76.783-1.3382-6.277-9.449-15.618-16.239-18.702-16.114-7.3192-35.689 2.9041-39.352 20.552-1.0589 5.1006-1.3999 28.552-1.1217 77.131 0.39771 69.441 0.41526 69.831 3.3966 75.409 6.8046 12.732 20.615 18.813 33.773 14.871z"/>
</svg>