<?xml version="1.0" encoding="UTF-8"?>
<svg version="1.1" viewBox="0 0 682.67 682.67" xmlns="http://www.w3.org/2000/svg">
<path d="m116.67 651.37c-38.863-8.6081-69.003-35.73-82.277-74.039l-4.3892-12.667v-446.67l4.3892-12.667c11.913-34.379 36.565-59.031 70.944-70.944l12.667-4.3892 218.67-0.35927c241.66-0.39705 227.93-0.84431 248.62 8.0988 33.015 14.274 57.218 42.844 65.356 77.148 2.7154 11.447 2.7375 13.583 2.3842 230.67l-0.35657 219.11-4.3892 12.667c-5.9763 17.247-14.883 31.68-27.074 43.87-12.19 12.19-26.623 21.097-43.87 27.074l-12.667 4.3892-220 0.23905c-178.75 0.19423-221.5-0.0932-228-1.5329zm262.78-91.391c69.524-11.886 135.26-60.595 164.51-121.9 13.723-28.763 21.304-61.584 21.359-92.472 0.0197-11.101-0.48231-14.713-2.6299-18.923-7.8158-15.32-28.422-18.874-41.409-7.142-6.2829 5.6762-7.3839 9.4364-8.526 29.118-2.6839 46.249-20.469 85.403-52.454 115.48-23.617 22.207-55.783 38.238-88.29 44.002-12.846 2.2776-43.127 2.2807-56 5e-3 -22.912-4.0491-47.857-14.132-68-27.486-13.142-8.713-34.948-30.628-43.782-44.002-19.935-30.18-28.779-59.475-28.779-95.333 0-14.948 0.67021-23.784 2.4219-31.93 7.6475-35.566 22.389-63.161 46.725-87.467 32.244-32.204 72.533-48.602 119.41-48.602 35.041 0 65.474 8.9932 93.503 27.631 5.04 3.3514 9.1636 6.5577 9.1636 7.1252 0 0.56748-1.8813 1.445-4.1807 1.95-6.3094 1.3858-15.06 10.87-16.948 18.369-3.3806 13.426 5.34 27.981 18.794 31.368 7.3763 1.8574 67.079 2.0936 74.827 0.29613 6.929-1.6076 14.188-7.6153 17.841-14.766 2.8889-5.6544 2.9997-7.1825 2.9926-41.256-4e-3 -21.702-0.57675-37.435-1.4797-40.687-1.8869-6.7967-9.7462-14.656-16.543-16.543-16.973-4.7121-30.896 3.4099-34.547 20.153l-0.79387 3.6405-11.648-8.6185c-60.788-44.978-147.56-54.262-219.06-23.438-57.003 24.575-102.93 74.424-122.52 132.99-8.5562 25.578-9.9392 35.288-9.9392 69.787 0 27.388 0.3685 32.985 2.9269 44.454 9.9786 44.731 28.875 79.036 61.498 111.64 35.273 35.258 70.851 53.912 119.44 62.626 19.278 3.4571 51.642 3.423 72.108-0.076z"/>
</svg>