<?xml version="1.0" encoding="UTF-8"?>
<svg version="1.1" viewBox="0 0 682.67 682.67" xmlns="http://www.w3.org/2000/svg">
<path d="m120.1 651.9c-39.972-7.9217-72.419-37.164-86.431-77.895l-3.6695-10.667v-444l4.3592-12.487c12.733-36.471 39.313-62.151 76.307-73.72l10-3.1273h441.33l10 3.1371c38.076 11.945 65.585 39.454 77.53 77.53l3.1371 10v441.33l-3.1196 9.9342c-11.765 37.465-37.882 64.106-75.547 77.063l-10.667 3.6695-218.67 0.19896c-120.88 0.11-221.31-0.32392-224.57-0.97027zm263.91-93.042c88.767-17.898 156.7-85.283 174.59-173.19 3.3322-16.374 5.8924-43.33 4.7805-50.332-2.0898-13.159-13.136-23.345-25.618-23.624-9.3286-0.20806-15.506 2.3291-21.498 8.83-5.9935 6.5021-8.2594 14.189-8.2594 28.018 0 18.094-7.8193 48.491-17.408 67.671-19.434 38.874-53.845 68.857-94.758 82.565-38.798 12.999-80.081 11.856-117.94-3.2649-10.563-4.2185-27.359-13.22-33.823-18.127l-3.2642-2.478 4.5976-1.9245c6.2956-2.6352 14.142-11.69 15.951-18.407 3.8117-14.156-5.1494-29.15-19.863-33.237-6.4388-1.7885-70.05-1.7396-76.527 0.0588-6.3057 1.7511-13.661 8.1131-17.042 14.74-2.382 4.6691-2.5881 8.0872-2.5881 42.917 0 37.042 0.0657 37.968 3.1024 43.72 1.7063 3.232 5.658 7.6764 8.7815 9.8764 5.0464 3.5543 6.7561 4 15.345 4 8.4903 0 10.343-0.46945 15.236-3.8599 3.8628-2.677 6.7299-6.2769 9.3551-11.747l3.7854-7.8869 3.8642 3.2376c7.9127 6.6298 27.603 18.611 40.852 24.857 20.734 9.7754 39.57 15.559 63.047 19.359 17.643 2.8555 56.942 1.9302 75.309-1.7731zm-225.46-180.13c5.4628-2.7869 11.642-9.308 13.533-14.282 0.63584-1.6724 1.4534-11.306 1.8168-21.408 1.1034-30.676 6.5729-53.67 18.297-76.921 15.921-31.574 42.682-58.263 74.239-74.039 20.758-10.377 51.127-17.417 75.066-17.4 22.652 0.016 49.791 5.9903 70.48 15.515 9.4486 4.3501 29.349 16.026 29.349 17.22 0 0.30473-1.95 1.3704-4.3333 2.3681-6.0606 2.5371-13.908 11.69-15.687 18.296-3.8117 14.156 5.1494 29.15 19.863 33.237 6.4388 1.7885 70.05 1.7396 76.527-0.0588 6.5543-1.8201 14.09-8.5197 17.144-15.242 2.1616-4.7581 2.4313-9.4565 2.4574-42.802 0.0287-36.666-0.0363-37.581-3.0731-43.333-1.7063-3.232-5.658-7.6764-8.7815-9.8764-5.0464-3.5543-6.7561-4-15.345-4-8.4903 0-10.343 0.46945-15.236 3.8599-3.8628 2.677-6.7299 6.2769-9.3551 11.747l-3.7854 7.8869-3.8642-3.2376c-14.594-12.228-45.268-28.449-67.198-35.537-24.753-7.9997-38.991-10.057-69.333-10.016-33.7 0.0455-52.946 3.373-80.192 13.864-69.349 26.704-121.22 87.385-136.95 160.22-5.0522 23.391-7.0649 56.286-4.0977 66.972 1.6746 6.0308 8.8464 14.389 14.912 17.379 6.0532 2.9841 17.268 2.7863 23.544-0.41534z"/>
</svg>