<?xml version="1.0" encoding="UTF-8"?>
<svg version="1.1" viewBox="0 0 682.67 682.67" xmlns="http://www.w3.org/2000/svg">
<path d="m108 665.43c-42.845-9.0871-78.314-42.988-89.73-85.763l-2.9362-11.002v-454.67l2.9362-11.002c10.861-40.696 44.033-73.868 84.729-84.729l11.002-2.9362h454.67l11.002 2.9362c40.696 10.861 73.868 44.033 84.729 84.729l2.9362 11.002v454.67l-2.9362 11.002c-10.731 40.208-43.387 73.131-84.022 84.709l-10.375 2.9562-225.33 0.25097c-212.59 0.23677-225.97 0.11504-236.67-2.1528zm162.38-107.5c6.2509-2.6112 11.806-7.8458 15.079-14.209 2.3504-4.5694 2.5446-8.2579 2.5446-48.333v-43.386h106.67v43.386c0 40.075 0.19419 43.764 2.5446 48.333 9.4361 18.345 32.068 21.685 46.489 6.8606 7.5682-7.7795 8.2996-12.904 8.2996-58.156v-40.425h40.425c45.251 0 50.376-0.73138 58.156-8.2996 14.824-14.421 11.484-37.053-6.8606-46.489-4.5694-2.3504-8.2579-2.5446-48.333-2.5446h-43.386v-106.67h43.386c40.075 0 43.764-0.19419 48.333-2.5446 18.345-9.4361 21.685-32.068 6.8606-46.489-7.7795-7.5682-12.904-8.2996-58.156-8.2996h-40.425v-40.425c0-45.251-0.73138-50.376-8.2996-58.156-14.421-14.824-37.053-11.484-46.489 6.8606-2.3504 4.5694-2.5446 8.2579-2.5446 48.333v43.386h-106.67v-43.386c0-40.075-0.19419-43.764-2.5446-48.333-9.4361-18.345-32.068-21.685-46.489-6.8606-7.5682 7.7795-8.2996 12.904-8.2996 58.156v40.425h-40.425c-45.251 0-50.376 0.73138-58.156 8.2996-14.824 14.421-11.484 37.053 6.8606 46.489 4.5694 2.3504 8.2579 2.5446 48.333 2.5446h43.386v106.67h-43.386c-40.075 0-43.764 0.19419-48.333 2.5446-18.345 9.4361-21.685 32.068-6.8606 46.489 7.7795 7.5682 12.904 8.2996 58.156 8.2996h40.425v40.425c0 31.742 0.42231 41.847 1.9662 47.046 4.6819 15.766 22.882 24.667 37.743 18.459zm18.238-164.92c-0.35581-0.92723-0.48965-24.784-0.29744-53.016l0.3495-51.33h105.33v105.33l-52.369 0.34884c-41.241 0.27472-52.507-9e-3 -53.016-1.337z"/>
</svg>