<?xml version="1.0" encoding="UTF-8"?>
<svg version="1.1" viewBox="0 0 682.67 682.67" xmlns="http://www.w3.org/2000/svg">
<path d="m326.66 652.09c-1.8381-0.55912-5.3335-2.0464-7.7676-3.3052-6.9274-3.5823-121.05-73.633-132.22-81.161-64.247-43.287-106.98-112.78-116.61-189.62-1.8915-15.098-2.1212-32.892-1.7816-138l0.38985-120.67 3.9053-7.7074c4.3893-8.6625 13.579-17.948 22.029-22.259 3.1054-1.5843 57.774-15.74 121.49-31.457 102.57-25.303 117.07-28.577 126.62-28.577 11.155 0 13.003 0.43067 203.29 47.376 23.776 5.8656 42.843 11.307 47.01 13.415 7.7248 3.9082 13.394 9.6611 17.982 18.246l3.0082 5.6296 0.40759 116.67c0.43494 124.5-0.0725 139.16-5.8071 167.67-12.785 63.584-49.926 122.32-102 161.31-18.477 13.834-139.92 87.867-149.34 91.041-8.0589 2.7149-23.888 3.4366-30.599 1.3952zm0.39619-239.1c4.8854-2.2814 22.223-18.621 73.724-69.482 42.983-42.448 68.362-68.489 70.172-72 3.852-7.4722 3.8614-19.512 0.0211-26.961-3.2519-6.3075-10.839-13.397-17.165-16.041-6.4224-2.6834-18.728-2.264-25.644 0.87399-4.2371 1.9225-20.559 17.266-59.54 55.971-29.537 29.327-54.217 53.322-54.845 53.322-0.62836 0-10.435-9.3404-21.793-20.756-25.118-25.247-29.149-27.923-41.984-27.875-13.452 0.0507-22.91 5.6779-29.073 17.298-3.9255 7.4016-3.9116 20.646 0.0295 28 1.5719 2.9333 14.45 16.765 28.617 30.737 38.59 38.057 47.924 46.526 53.095 48.172 7.8628 2.5034 17.38 2.0117 24.385-1.2599z"/>
</svg>