<?xml version="1.0" encoding="UTF-8"?>
<svg version="1.1" viewBox="0 0 682.67 682.67" xmlns="http://www.w3.org/2000/svg">
<path d="m191.14 638.74c-7.0669-1.6995-13.658-6.669-17.489-13.186-4.9037-8.3417-4.6987-17.158 0.91807-39.477 11.455-45.521 30.639-79.32 64.05-112.85 13.594-13.641 21.825-20.61 33.377-28.258 25.837-17.105 51.578-28.034 81.333-34.534 12.364-2.7008 17.583-3.0547 44.667-3.0297 26.702 0.0248 32.391 0.4106 44 2.9845 89.239 19.785 155.9 83.9 177.93 171.13 8.5503 33.855 6.3427 46.258-9.7679 54.875l-5.4989 2.9415-204.67 0.20529c-112.57 0.11293-206.55-0.24803-208.86-0.80209zm-117.16-101.22c-6.5402-2.9711-13.148-10.26-15.35-16.931-4.2104-12.758 6.4641-53.552 22.295-85.207 31.903-63.79 90.789-109.81 158.96-124.22 9.7564-2.0627 11.374-2.1191 12.369-0.43116 19.3 32.753 26.679 42.407 43.155 56.466 5.5492 4.7349 9.9689 9.1041 9.8215 9.7093-0.14744 0.60525-4.836 2.9548-10.419 5.2213-49.544 20.113-94.241 56.866-124.87 102.68-8.347 12.484-21.438 37.092-26.351 49.533l-2.2376 5.6667-31.011-0.0293c-27.109-0.0256-31.683-0.33478-36.356-2.4574zm302.01-178.1c-43.604-9.2327-77.76-41.451-89.668-84.582-2.2769-8.247-2.8068-13.942-2.8068-30.166 0-16.224 0.52987-21.919 2.8068-30.166 9.681-35.065 35.698-64.859 68.045-77.925 13.204-5.3335 23.03-7.4244 38.29-8.1482 45.343-2.1508 87.162 22.862 107.4 64.239 8.7737 17.938 11.914 31.645 11.914 52 0 45.918-24.197 85.103-65.005 105.27-15.195 7.5097-26.722 10.24-45.643 10.81-10.915 0.32906-19.657-0.1308-25.333-1.3326zm-146.56-99.082c-10.713-6.3024-26.525-20.957-34.031-31.54-7.7496-10.926-14.744-25.184-18.168-37.032-4.06-14.052-4.9847-39.638-1.9707-54.526 9.1523-45.209 40.896-79.002 85.396-90.907 8.2047-2.1952 14.514-2.8539 27.333-2.8539 19.793 0 33.364 3.049 50.012 11.237 11.597 5.7033 30.536 19.902 35.104 26.317l2.8537 4.0076-6.3036 0.94528c-10.119 1.5175-33.416 9.6533-44.02 15.373-20.343 10.973-42.156 29.643-54.656 46.781-22.006 30.171-33.417 66.663-31.958 102.2 0.33884 8.25 0.23163 15-0.23826 15-0.4699 0-4.6788-2.25-9.3532-5z"/>
</svg>